<?xml version="1.0" encoding="utf-8"?>
<!-- Generator: Adobe Illustrator 24.3.0, SVG Export Plug-In . SVG Version: 6.00 Build 0)  -->
<svg version="1.1" id="Layer_1" xmlns="http://www.w3.org/2000/svg" xmlns:xlink="http://www.w3.org/1999/xlink" x="0px" y="0px"
	 viewBox="0 0 1190.6 841.9" style="enable-background:new 0 0 1190.6 841.9;" xml:space="preserve">
<style type="text/css">
	.st0{fill:#6588A7;}
	.st1{fill:#989797;}
	.st2{fill:#6E91B3;}
	.st3{fill:#8FA8C0;}
	.st4{fill:#7B9AB7;}
	.st5{fill:#BA464B;}
	.st6{fill:#C03936;}
	.st7{fill:#ECAEA4;}
	.st8{fill:#A38085;}
	.st9{fill:#D6271F;}
	.st10{fill:none;}
	.st11{fill:#FFFFFF;}
	.st12{font-family:'Montserrat-ExtraBold';}
	.st13{font-size:50px;}
</style>
<image style="overflow:visible;" width="447" height="241" xlink:href="171CC872.png"  transform="matrix(1 0 0 1 189 281.8898)">
</image>
<g>
	<path class="st0" d="M-106.1,437.6c0.9,1.3,1.8,2.7,2.7,4c0,0.8-0.1,1.6-0.1,2.5c0.2,5.2,0.5,10.2-5.6,12.7
		c-4.1,1.7-7.9,4-11.9,6.1c-0.3,0.1-0.7,0.1-1,0c-3-0.4-3.7,1.3-3.6,3.8c-3.8,0.6-7.6-0.2-11.5,1.8c-3.9,2-6.4-1-5.5-5.7
		c0.2-0.1,0.5-0.1,0.7-0.1c2.8,0.2,5.7,0.6,4.3-3.8c0.2-0.2,0.3-0.3,0.6-0.2c0.7,0,1.1-0.3,1.2-1l-0.1-0.1c2.7,0.2,2.2-1.6,2-3.2
		c0.2-0.5,0.3-1,0.5-1.5c3.3-2.3,1.9-5.2,0.9-8c-0.7-1.7-1.4-3.3-2.1-5c2-5.6-1.3-11.3-6.6-12c-1.5-0.2-2.9-0.7-4.3-1l0,0
		c-0.3-1.2,0.6-3.1-1.1-3.4c-1.7-0.3-2.8,1.4-2.7,2.9c0.1,2.2-2,3.5-2,5.4c-0.2,4.7-1.3,9.2-3.7,13.1c-2.5,4-0.2,10.8-4.3,12.4
		c-6.2,2.3-2.8,7.3-4.9,10.4c-1.2,1.7-1.6,4-3.7,5.1c-1.9,1-1.5,2.7-1.2,4.4c0,0,0,0,0,0c-2-0.6-2.9,0.5-3.9,2
		c-1.3,1.8-2.8,4.2-4.7,4.9c-3.7,1.3-3.9,3.8-3.6,6.8c-12.1,12-26.4,20.1-43,24c-3.1,0-6.2,0.1-9.3,0.1c-1.7,0-3.4-0.1-3.5,2.3
		c-1.3,0.8-2.6,0.6-4,0.4c-4.9-1.2-9.9-1.2-14.8,0c-2-0.2-4-0.5-6.1-0.7c-0.3-2.5-2.3-2-3.8-2c-2.4,0-3.8-1.2-4.8-3.7
		c15.6,2.4,29.8-1.3,43.6-7c3.9-1.6,7.8-3.3,10.9-6.4c2.7-0.2,5.3-0.6,6.1-3.8c3-0.8,5.9-1.8,7.1-5c1.8-0.1,2.7-1.2,3.1-2.8
		c0.9-0.7,1.8-1.4,2.7-2.1c4.2-1,5.5-5.4,8.9-7.4c1.3-1.7-1.1-4.6,1.8-5.8c4.3-0.8,7.8-5.8,7.1-10.2c0.4-0.9,0.8-1.7,1.3-2.6
		c1,1.8,1.9,0.9,2.8-0.2c0.3,1.5-0.7,3.2,1.4,4.8c1.1-3.1,0.4-6,0.6-8.8c0-0.4,0-0.8-0.1-1.2c0-0.6,0-1.1,0.1-1.7
		c0.5-0.2,1.2-0.2,1.3-0.5c4.7-10.6,7.2-21.7,8.5-33.1c0.2-1.3-0.4-2.3-1.8-2.4c-1.4-0.1-2.5-0.8-3.1-2.1c0.1-3.4,4.2-3.3,5.1-6.3
		c1.3-4.6,1-9.1,0.5-13.7c-0.5-5-1.7-9.9,1-14.9c2.1-3.8-0.9-9.9-4.7-10.8c-0.3,0-0.6-0.1-0.8-0.1c0-1.3-0.6-2-1.9-2
		c-1.6-5.7-2.9-11.5-7-16c-1.6-5-4.6-9.3-7.1-13.8c0.5-2.6-1.1-3.6-3.3-4c-1.1-0.7-2.2-1.5-3.3-2.2c-0.1-0.6-0.2-1.3-0.3-1.9
		c1.4-3.3-1.1-3.4-3.1-3.9l-0.1,0c-0.2-1.3,1.5-3.6-0.1-3.9c-3.9-0.7-4.9-3.7-6.6-6.3l0,0c1.8-3.5,3.6-2.6,5.5-0.1
		c3.2,4.4,6,9.3,12.2,10.2c0.5,0.1,1.4,0.7,1.4,1.2c0.6,6.3,7.3,7.6,10.3,12.2c3,4.6,6.2,8.7,7.5,14.1c0.4,1.7,0.6,4,2.9,4.1
		c3.7,0.1,3.4,2.5,3.2,4.8c-0.5,5.3,1.7,9,6.4,11.4c0.2,0.7,0.3,1.4,0.5,2c-1.4,2.8-1.4,5.9,0,8.5c2.3,4.2,1.1,8.8,2,13.2
		c0.5,2.2,1.7,4.9,0.9,7.7c-1.9,6.7,3.7,16.6,10.2,16.1c8.7-0.7,12.7,6.7,19.2,9.6C-114.2,429.8-110.3,434.5-106.1,437.6z"/>
	<path class="st1" d="M-361.9,445.9c-11.5,4.5-14.6,16-6.8,25.5c5.3,6.4,12.2,11,18.6,16.2c-1.2,0.4-2.5,0.9-3.7,1.3
		c-16.6-6.9-32.2-15.6-44.1-29.5c-8.2-9.5-5.9-19.7,5.6-25c10.6-5,21.8-7.6,33.6-7.5c5-0.2,10.1,0.7,15.1-0.9c2,1.1,3.8,1.4,4.9-1.1
		c1.3,0.7,2.5,1.3,4,1.1c0.9,0,1.7,0.1,2.6,0.1c0.9,0,1.7,0,2.6,0c1.4-0.3,2.6,0.4,3.9,0.8c1,0,2.1,0.1,2.8-1
		c0.8,0.3,1.5,0.6,2.3,0.9c2.1,0.6,3.2-0.8,4.4-2.1c0.6,0.1,1.1,0.2,1.7,0.3c-0.1,3.1,2.1,1.8,3.6,1.9c0.7,0,1.5,0,2.2,0
		c1.9,1.4,3.7,0.9,5.5-0.2c0.8,0.1,1.6,0.2,2.4,0.2c1.7,2,3.8,0.9,5.8,0.9c4.3,2.4,8.8,3.8,13.8,3c3-0.5,5.7,0.5,8.2,2
		c0,0.7,0,1.4,0,2.1c-2,0.4-3.6,3.1-5.8,1.8c-5.8-3.3-11.9-1.6-17.9-1.8c-4-0.1-8.2-1.1-12.1,0.8c-2.8,1.1-5.1,3.1-8.8,1.2
		c-3.2-1.7-7,2.5-10,1.7c-5.8-1.6-10.8,0.3-16.2,1.1c-1.7,0.3-3.4,0.6-5.1,0.9c-1.6,0.4-3.2,0.9-4.8,1.3c-1,0.3-2.1,0.6-3.1,0.9
		C-359.1,442.9-360.8,443.9-361.9,445.9z"/>
	<path class="st2" d="M-216.2,497.8c-3.1,3.1-7,4.8-10.9,6.4c-13.8,5.6-28,9.4-43.6,7c1,2.5,2.3,3.7,4.8,3.7c1.6,0,3.5-0.5,3.8,2
		c-8.1-0.2-15.6-2.7-22.9-6.1c-0.2-0.5-0.2-1.2-0.5-1.3c-4.7-2.2-9.3-4.6-14.1-6.4c-1.9-0.7-5.3,0-6-1.5c-2.2-4.5-5.7-2.2-8.7-2.6
		c-0.5-0.2-1-0.4-1.5-0.6c-1-2.7-0.5-6.3-5.3-6.2c-1.3,0-4.4-1.3-5.1-3.4c-1.2-3.8-4-2.9-6.7-2.8c0,0,0,0,0,0
		c0.3-2.6-0.9-3.4-3.3-2.9c-1.2-0.4-2.1-1.2-2.5-2.4c0.9-5.4-4.4-7.1-6.6-10.6c-0.2-0.3-1.2,0-1.9,0c-0.2-0.2-0.5-0.5-0.7-0.7
		c0.1-2.5-0.6-4.4-3.6-4.5c0,0-0.1-0.2-0.1-0.2c0.2-0.6,0.3-1.3,0.6-1.8c0.5-0.9,2.3-1.1,1.7-2.5c-0.6-1.4-2-1.4-3.3-1.4
		c-0.8,0-1.6,0.1-2.4,0.1c-1.8-1.6-2.3-3.9-3.1-6c2.6-1.1,3.9,2.5,6.4,1.8c0.3,0,0.6,0,1,0c0.3,2.3,1.6,3.7,4,3.9c0.3,0,0.6,0,1,0
		c0.3,2.4,1.6,3.7,4,4c0.3,0,0.6,0,1,0c0,1.3,0.7,2,2,2c3.7,0.2,5.5,3.5,8.3,5.2c20,12.4,42.1,19.5,64.6,25.6
		c1.7,0.5,3.6,0.7,5.1-0.9c1.3,0.5,2.6,1.1,3.8,1.6c-0.8,1.4-1.6,2.5,1.3,2.5C-242.6,498.9-229.4,498.5-216.2,497.8z M-275.8,512.4
		c0.1-0.3,0.4-0.6,0.3-0.8c-0.1-0.2-0.5-0.3-0.8-0.4c-0.1,0.3-0.4,0.6-0.3,0.8C-276.5,512.3-276.1,512.3-275.8,512.4z"/>
	<path class="st3" d="M-345.9,458.9c-0.3,0-0.6,0-1,0c-0.6-2.1-1.9-3.5-4-3.9c-0.3,0-0.6,0-1,0c-1.4-3.8-4.5-4.9-8.2-5.1
		c-0.6-1.3-1.3-2.6-1.9-3.8c1.1-2,2.8-3,5.1-3.1c9.3,12.2,22.7,19.1,35.5,26.5c9.6,5.5,19.7,10.4,30.4,14c9.2,3,18.4,5.9,27.9,7.3
		c0.4-0.6,0.7-1.2,1.1-1.7c1.7,1.7,0.9,3.8,1,5.8c-1.5,1.6-3.4,1.4-5.1,0.9c-22.5-6.1-44.6-13.1-64.6-25.6c-2.7-1.7-4.6-5-8.3-5.2
		c-0.1-1.3-0.7-2-2-2c-0.3,0-0.6,0-1,0C-342.2,460.5-343.5,459.1-345.9,458.9z"/>
	<path class="st2" d="M-200.2,313c1.7,2.6,2.7,5.6,6.6,6.3c1.6,0.3-0.1,2.5,0.1,3.9c-1.5-0.1-1.5-1.8-2.6-2.3
		c-1.7-1.1-2.9-3-5.2-3.2c-3.3-5-8.7-7.5-13-11.3c-0.2-0.2-0.4-0.4-0.7-0.5c0,0-0.1-0.1-0.1-0.1c-1.4-1-2.2-2.9-4.3-2.8
		c-0.3,0-0.5,0-0.7-0.2c-0.4-0.3-0.7-0.6-1.1-0.8c0,0,0.1,0.1,0.1,0.1c-0.5-1.1-1.4-1.1-2.4-1l-0.3,0c0,0-0.3-0.2-0.3-0.2
		c-0.3-2.3-1.9-2-3.5-1.8l-0.3,0.1c0,0-0.3-0.2-0.3-0.2c0-2.3,1.5-3,3.4-3.3c0.7,0.4,1.4,0.7,2.1,1.1c1.3-0.2,1.8,2.4,3.5,1.1
		c5-0.6,8.9,2.4,12.8,4.5c27.5,14.8,45.8,37.3,55.3,67.1c0.1,0.4,0,1,0,1.5c-4.6-2.4-6.8-6.1-6.4-11.4c0.2-2.3,0.5-4.7-3.2-4.8
		c-2.3-0.1-2.5-2.4-2.9-4.1c-1.3-5.4-4.5-9.6-7.5-14.1c-3-4.6-9.7-5.9-10.3-12.2c0-0.5-0.9-1.1-1.4-1.2c-6.2-0.9-8.9-5.9-12.2-10.2
		C-196.7,310.3-198.5,309.4-200.2,313c-0.1,0.1-0.2,0.3-0.2,0.4C-200.4,313.2-200.3,313.1-200.2,313z"/>
	<path class="st4" d="M-169.1,477.1c-0.3-1.7-0.7-3.4,1.2-4.4c2.1-1.1,2.5-3.4,3.7-5.1c2.1-3.1-1.3-8.1,4.9-10.4
		c4.1-1.5,1.8-8.3,4.3-12.4c2.4-3.8,3.5-8.4,3.7-13.1c0.1-1.9,2.1-3.2,2-5.4c-0.1-1.5,1.1-3.1,2.7-2.9c1.7,0.3,0.8,2.2,1.1,3.4
		c-3.7,2.1-2.9,6.2-3.8,9.5c-2.3,8.3-5,16.4-8.9,24c-1.2,2.3-4.1,3.8-3.1,7.6c6.2-1.7,12.5-3.5,18.8-5.2c-1,4.7,1.6,7.8,5.5,5.7
		c3.8-2,7.7-1.2,11.5-1.8c1.4-0.5,2.7-1.1,4.3-0.7c-8.5,3.6-17.6,4.5-26.6,5.5c-4.9,0.6-9.9,1-14.8,0.8
		C-166.5,472.1-166.5,476.2-169.1,477.1z"/>
	<path class="st4" d="M-342.5,324.9c3.4-4.8,7.6-8.8,12.6-11.9c1,0,2,0,2.9,0c3.5,3.3,5.6,1.9,7-2c1.3,0,2,0.7,2,2
		c-0.2,0.4-0.5,0.7-0.7,1.1c0.1,0.1,0.2,0.2,0.4,0.3c0.1-0.4,0.3-0.9,0.4-1.3c1,0,2,0,3,0l0,0c-0.7,1.3-1.3,2.7-2,4
		c-2.2,0.5-2.6,1.5-0.8,3.1c-0.9,2.9,0.1,7.1-5,6.9c-6-0.2-12.1-0.3-18.1-0.5c0.4-0.3,1.3-1,1.3-1
		C-340.3,324.3-341.5,325.1-342.5,324.9z"/>
	<path class="st2" d="M-106.1,437.6c-4.2-3.1-8.1-7.8-12.1-9.6c-6.5-2.8-10.5-10.2-19.2-9.6c-6.5,0.5-12.1-9.4-10.2-16.1
		c0.8-2.8-0.4-5.5-0.9-7.7c-1-4.4,0.3-9-2-13.2c-1.4-2.6-1.4-5.7,0-8.5c3.6,7.3,5.2,15.5,4.5,23.1c-1,11.9,3.7,17.6,14.4,21.2
		c9.1,3.1,16.7,9.5,23.8,16C-105.8,435.2-105.8,435.5-106.1,437.6z"/>
	<path class="st5" d="M-407.6,370.8c-6.3-4-10.9-9.8-14-16.3c-4.3-9,0.3-17.4,11.4-21.4c11.8-4.3,24-6,36.5-6.2
		c0.3,0.2,0.6,0.3,0.9,0.4c0,0.5-0.1,1.1-0.1,1.6c-0.7,0-1.3,0.1-2,0.1c-2.3,0-4.6,0-7,0.1c-0.3,0-0.6,0-0.9,0c-2.7,0.4-6-1.3-8,1.9
		c-3.3,0.1-6.6,0.2-9.9,0.3c-1.1,0.1-1.7,0.8-2.1,1.7l0,0c-1.5,0.2-3.5-0.6-4,1.9c-2.7-0.1-4.5,1.7-6.6,2.8
		c-5.2,2.6-9.3,9.5-6.7,14.7c1.9,3.9,4.3,7.6,7.4,10.7c0.6,2.1,1.9,3.4,4,3.9l0,0c0.4,1,0.8,2,1.2,3c0,0.2,0.1,0.4,0.2,0.6
		L-407.6,370.8z"/>
	<path class="st3" d="M-316.9,317c0.7-1.3,1.3-2.7,2-4c1.6-0.2,3.9,0.7,3.8-2.3c0-0.9-0.6-1.5-1.6-1.6c-3-0.1-2.1,2.2-2.3,3.8
		c-1,0-2,0-3,0l0,0c0-1.3-0.7-1.9-2-2c-0.8-1.8-2.2-2.2-3.9-1.9c-0.1-0.2-0.3-0.3-0.4-0.5c2.9-2.8,6.4-4.3,10.1-5.8
		c2.2,1.4,3.4,1,3.2-1.8c0.5-0.8,1.3-0.9,2.1-0.9c5.3,1.2,3.8,5.4,3.9,8.8c0,0.6,0.1,1.2,0.1,1.8c0,0-0.2,0.3-0.2,0.3
		c-3.5,1.7-5.7,5.4-9.8,6.1C-315.6,317-316.2,317-316.9,317C-316.9,317-316.9,317-316.9,317z"/>
	<path class="st2" d="M-121.2,465.9c-1.5-0.4-2.9,0.3-4.3,0.7c-0.1-2.5,0.6-4.2,3.6-3.8c0.3,0,0.7,0.1,1,0c4-2,7.8-4.4,11.9-6.1
		c6.2-2.5,5.9-7.5,5.6-12.7c0-0.8,0.1-1.6,0.1-2.5c4.8,4,4.4,11.7-1.2,16.1C-109.5,461.6-114.8,464.9-121.2,465.9z"/>
	<path class="st6" d="M-376.8,390.9c-6.7-2.1-12.4-6-17.9-10.4c0-0.5,0-1.1-0.1-1.6c5.8,3,5.9,2.9,6.1-4.1c5.5,4.8,9.7,11,15.9,15
		c0,1,3.7,3-0.7,2.9c0,0-0.2-0.3-0.2-0.3C-374.8,392-375.8,391.4-376.8,390.9z"/>
	<path class="st7" d="M-240.1,322.3c0.6-0.9,1.8-1.9,2.3-1.4c3.2,3.2,7.8,1.7,11.4,3.7c0.2,0.2,0.3,0.3,0.5,0.5
		c-1.9,1.8-3.9,3.5-5.1,5.9c-2.8,1.6-4,4.5-6.1,6.8c-0.3,0.4-0.7,0.7-1,1.1c-1.2,0.5-1.7,2.9-3.8,1.2c2.2-4.2,6.3-7.1,7.8-11.7
		c0.4-1.1,4-1.2,2.1-3.5c-1.5-1.9-4.3-1.6-5.7,0.3c-2.9,4.1-6.9,7.6-8.5,12.6c-1,0.4-1.8,1.7-3,0.4c-0.9-0.9-0.1-1.5,0.2-2.1
		c1.3-1.6,2.9-3.1,3.9-4.9C-243.4,328.3-239.9,326.3-240.1,322.3z"/>
	<path class="st7" d="M-226.4,324.7c4.1-2.6,10.8-2,12.3,1.3c-0.1,0.4-0.1,0.8-0.2,1.2c-5.6,5.7-11.1,11.4-16.7,17.1
		c-0.5-0.5-0.9-0.9-1.4-1.4c0.4-0.6,0.9-1.3,1.3-1.9c2.9-3.1,5.8-6.2,8.5-9.5c1.4-1.7,4.6-3.3,3.5-5.3c-1.1-2-4.4-1.5-6.9-1
		C-226.1,325-226.3,324.8-226.4,324.7z"/>
	<path class="st6" d="M-240.1,322.3c0.3,4-3.2,6-4.9,8.9c-1.1,1.8-2.6,3.3-3.9,4.9c-0.8-1.3-2.1-1.1-3.3-1.2
		c1.4-6.1,4.5-11.1,10.2-14.1C-241.4,321.3-240.8,321.8-240.1,322.3z"/>
	<path class="st4" d="M-314.4,499c3,0.4,6.5-2,8.7,2.6c0.7,1.5,4.1,0.8,6,1.5c4.8,1.8,9.4,4.2,14.1,6.4c0.3,0.1,0.4,0.9,0.5,1.3
		c-8.9-2.4-17.7-5-26.1-8.9C-312.4,501.2-313.7,500.4-314.4,499z"/>
	<path class="st4" d="M-333,485.9c2.7-0.1,5.5-1,6.7,2.8c0.7,2.2,3.7,3.5,5.1,3.4c4.9-0.1,4.3,3.5,5.3,6.2
		C-322.7,495.7-328.3,491.4-333,485.9z"/>
	<path class="st7" d="M-242.1,320.8c-5.7,3-8.8,8-10.2,14.1c-1.5,0.4-2.8,4-4.6,0.3c2.2-2.8,4.2-5.8,5.8-9.1
		c0.3-1.1,0.6-2.1,0.9-3.2C-245.4,318.5-245.1,318.4-242.1,320.8z"/>
	<path class="st8" d="M-372.7,327.2c-0.3-0.1-0.6-0.2-0.9-0.4c8.8-2.1,17.9-1,26.8-1.5c1.5-0.1,2.9-0.3,4.4-0.4
		c1,0.2,2.2-0.6,2.9,0.6c0,0-0.8,0.7-1.3,1c-5,1-10,0.2-15,0.6C-361.4,327.1-367.1,327.2-372.7,327.2z"/>
	<path class="st4" d="M-224.7,295.8c-1.9,0.2-3.4,1-3.4,3.3c-3.8-0.9-7.6-1.9-11-3.9c0-0.8,0.1-1.6,0.1-2.4
		C-234.2,293-229.2,293.4-224.7,295.8z"/>
	<path class="st4" d="M-181.3,490.8c-0.2-3-0.1-5.5,3.6-6.8c1.9-0.7,3.4-3,4.7-4.9c1.1-1.5,1.9-2.6,3.9-2
		C-171.9,482.8-176.4,487-181.3,490.8z"/>
	<path class="st7" d="M-257.7,323.5c1.2-0.1,2.4-0.3,3.7-0.4c0.6,0.9,2.1,1.2,1.9,2.7c-2.7-1.7-3.9,0-5.4,1.9
		c-2,2.5-2.2,6.7-6.4,7.4c0,0-0.2-0.1-0.2-0.1c0.4-1.3,0.9-2.6,1.3-3.8C-260.4,329-259.7,325.8-257.7,323.5z"/>
	<path class="st5" d="M-373.5,392.8c4.4,0.1,0.7-1.9,0.7-2.9c1-0.1,1.9-0.2,2.9-0.3c1.3,0.9,2,2.6,3.9,2.4c-1.6,1.4,7.3,4.6-0.8,4.9
		l-0.3-0.2c0,0-0.4,0-0.4,0c-1.6-1.2-3.1-2.6-5.1-3C-372.9,393.5-373.2,393.1-373.5,392.8z"/>
	<path class="st5" d="M-257.7,323.5c-2,2.3-2.6,5.5-5.1,7.6c-0.8-0.1-1.7-0.1-2.5-0.2c0.9-3.4,4.1-5.7,4.5-9.3l0.1-0.3
		c0,0-0.3-0.1-0.3-0.1c0.5,0.1,0.9,0.2,1.4,0.2l0.1,0c0.7,0.4,1.5,0.7,2.2,1.1C-257.5,322.8-257.6,323.1-257.7,323.5z"/>
	<path class="st4" d="M-347.3,470c0.7,0,1.7-0.3,1.9,0c2.2,3.5,7.5,5.2,6.6,10.6C-342.5,477.7-345.2,474.1-347.3,470z"/>
	<path class="st5" d="M-394.8,379c0,0.5,0,1.1,0.1,1.6c-4.9-2.5-9.5-5.3-12.9-9.8c0,0,0.3-0.3,0.3-0.3c0.9,0.2,1.7,0.3,2.6,0.5
		c0.9,2.2,2.3,4,5,3.9c0,0,0,0,0,0c0.1,1.9,1.5,2,2.9,2C-396.7,378.2-396,378.9-394.8,379z"/>
	<path class="st2" d="M-256,517.5c4.9-1.2,9.9-1.2,14.8,0C-246.2,518.8-251.1,518.9-256,517.5z"/>
	<path class="st2" d="M-237.2,517.1c0.1-2.4,1.8-2.3,3.5-2.3c3.1,0,6.2,0,9.3-0.1C-228.5,516.2-232.7,517.8-237.2,517.1z"/>
	<path class="st4" d="M-355.1,459c0.8,0,1.6-0.1,2.4-0.1c1.3,0,2.8,0,3.3,1.4c0.6,1.5-1.2,1.6-1.7,2.5c-0.3,0.5-0.4,1.2-0.6,1.8
		C-353.6,463.2-354.5,461.1-355.1,459z"/>
	<path class="st4" d="M-360,449.8c3.7,0.1,6.8,1.2,8.2,5.1c-2.5,0.6-3.8-2.9-6.4-1.8C-360,452.6-359.7,451-360,449.8z"/>
	<path class="st4" d="M-351.6,464.7c3,0.1,3.7,2,3.6,4.5C-350.2,468.5-351,466.7-351.6,464.7z"/>
	<path class="st4" d="M-219.2,297.9c-1.7,1.3-2.2-1.3-3.5-1.1C-220.8,294.9-220.1,296.8-219.2,297.9z"/>
	<path class="st4" d="M-336.3,483c2.4-0.4,3.6,0.4,3.3,2.9C-334.6,485.6-335.6,484.4-336.3,483z"/>
	<path class="st4" d="M-219.5,303.1c2.1-0.2,2.9,1.8,4.3,2.8C-217.2,305.8-218.7,305-219.5,303.1z"/>
	<path class="st3" d="M-326.9,313c-1,0-2,0-2.9,0c0.4-1.3,1.5-1.8,2.6-2.3c0.1,0.1,0.3,0.2,0.4,0.4
		C-326.9,311.7-326.9,312.3-326.9,313z"/>
	<path class="st3" d="M-327.2,310.7c0.6-1.4,1.7-1.8,3-2.1c0.1,0.2,0.3,0.3,0.4,0.5c-0.7,1.1-1.6,1.9-3,2
		C-327,310.9-327.1,310.8-327.2,310.7z"/>
	<path class="st4" d="M-227.6,299.2c1.6-0.2,3.2-0.5,3.5,1.8C-225.6,301-226.7,300.2-227.6,299.2z"/>
	<path class="st5" d="M-376.8,390.9c1,0.5,2,1.1,3,1.6C-374.9,392.2-376.1,392-376.8,390.9z"/>
	<path class="st4" d="M-223.6,301.2c1-0.1,1.9-0.2,2.4,1C-222.2,302.1-223,301.9-223.6,301.2z"/>
	<path class="st4" d="M-215,305.9c0.3,0.1,0.5,0.3,0.7,0.5C-214.9,306.7-215,306.3-215,305.9z"/>
	<path class="st4" d="M-221.3,302c0.4,0.3,0.7,0.6,1.1,0.8C-220.6,302.6-220.9,302.3-221.3,302z"/>
	<path class="st4" d="M-168.4,412.8c0.6,1.3,1.7,2,3.1,2.1c1.5,0.1,2,1,1.8,2.4c-1.4,11.4-3.9,22.5-8.5,33.1
		c-0.1,0.3-0.9,0.4-1.3,0.5c-0.1-4.4,0.4-9.1-4-12c-0.2-1.6,0.7-4.1-2.2-3.9c-2.4,0.2-1.5,2.4-1.7,3.9c-0.1,0.6,0,1.3,0,2
		c-1.5,3.6-2.9,7.1-8,6c-1.4-0.1-2,0.6-2,1.9l0,0c-1.3,0-2,0.6-2,2c0,0,0,0,0,0c-6-2-3.4-7.1-4.1-11.1c1.5-2.3-1.1-3.9-1-6
		c2.1-2.8,0.7-6,1-8.9c0.2-1.7,0.6-3.8-2.1-4.1c-0.2-1.9,2.2-2.2,2.2-3.9c1.3-0.1,2-0.7,1.8-2.1c0,0,0-0.1,0-0.1c0.7,0,1.3,0,2,0
		c2.8-2.8,7.5-0.6,10-3.9c1.3,0,2.7,0,4,0c0.2,2,1.6,2.1,3.2,2.1C-173.5,412.8-171,412.8-168.4,412.8z M-192.3,418.5
		c-1.4,2.6-1,5.3-0.9,7.8c0.1,1.4,0.9,2.6,2.5,2.3c1.6-0.3,1.3-1.7,1.3-2.8C-189.3,423-192,421.2-192.3,418.5z M-192.1,430.9
		c-1.6,1.7-4,2.6-2.7,4.9c1,1.9,3.1,1.1,5,0.6C-190.5,434.7-191.2,433.1-192.1,430.9z M-192,444.5c0.1-0.3,0.4-0.6,0.3-0.8
		c-0.1-0.2-0.5-0.2-0.7-0.4c-0.1,0.3-0.4,0.6-0.3,0.8C-192.7,444.3-192.3,444.3-192,444.5z"/>
	<path class="st1" d="M-168.4,412.8c-2.6,0-5.1,0-7.7,0c-1.5,0-3,0-3.2-2.1c1.3-2.3,5.1,0.8,5.9-2.7c5.8-1.6,7.2-4.3,6.9-13.1
		c0.2-1,0.2-2,0.6-2.8c0.8-1.8-0.2-2.8-1.5-3.6c-0.5-0.3-1.3-0.5-1.8-0.3c-1.8,1,0,2.2-0.1,3.4c-0.1,1.1,0.1,2.3,0.1,3.4
		c0,0.6-0.1,1.3-0.1,1.9c-2.9,0.1-1.3-4.4-4.2-4.1c-0.1-0.2-0.1-0.4,0-0.6c-0.1-1.6,2.4-2.5,1.2-4.4c0.8-1.7,2.6-2,4-2.9
		c3-3.4,3.9-10.8,1.9-14.9c0-0.9,0-1.9-0.1-2.8c3.8,0.9,6.8,7,4.7,10.8c-2.7,5-1.5,9.9-1,14.9c0.5,4.6,0.8,9.1-0.5,13.7
		C-164.1,409.5-168.3,409.5-168.4,412.8z"/>
	<path class="st9" d="M-196.1,474.5c-0.3-0.5-0.5-1-0.8-1.6c0.9-1.5,1.2-2.9-0.1-4.3c-0.1-2.1,1.1-3.8,1.9-5.7
		c0.6-0.1,1.1-0.2,1.7-0.2c0.4,0,0.8,0.1,1.1,0.1c1.4-0.9,0.9-2.4,1.2-3.6c0.4-1.7,1.5-3,3.2-1.9c4.2,2.6,2-1.4,2.7-2.4
		c0.7,0,1.3-0.1,2-0.1c3.8,1.9,1.8,4.6,1.1,7.2c-1.9,2.7-3.9,5.4-4.3,8.8c-2.9,1.2-0.4,4.1-1.8,5.8c-1.9-1.3-4.3,1.1-6.2-0.8
		C-194.6,474.9-195.3,474.7-196.1,474.5z"/>
	<path class="st3" d="M-198.1,364.9c1.4-3.1,4.2-2,6.5-2c3.4,0.1,5.6-1,8.3-3.5c3.4-3.1,5.9-6.3,7.2-10.6c4.1,4.6,5.4,10.4,7,16
		c-1.2,0.1-2.4-0.1-3.1,1.1c-7.6-0.4-15.3-0.7-22.9-1.1C-196.3,364.9-197.2,364.9-198.1,364.9z"/>
	<path class="st3" d="M-216.2,497.8c-13.2,0.7-26.4,1.1-39.6,1c-2.9,0-2.1-1.1-1.3-2.5c2.1,0.2,4,1.8,6.2,1.2
		c3.6,0.3,7.2,1.1,10.7-0.5c2.5-1.4,5-2.8,7.4-4.1c0,0,0.3,0,0.3,0l0.3,0.1c1.7,3.5,5,2.1,7.3,1.6c4.9-1,9.8-0.7,14.7-0.5
		C-210.9,497.2-213.5,497.6-216.2,497.8z"/>
	<path class="st6" d="M-182.2,461.9c0.7-2.6,2.7-5.3-1.1-7.2c0-2,0-4,0-5.9c1-1.5,1.9-3,3-4.4c0.7-0.8,0.9-2.4,2.4-2.1
		c1.5,0.3,1.8,1.8,2.2,3c0.9,2.6,0,5.1-0.6,7.7c-0.1,1.9-3,2.8-1.8,5.1c-0.4,0.9-0.8,1.7-1.3,2.6
		C-180.3,461-181.3,461.5-182.2,461.9z"/>
	<path class="st8" d="M-176.3,452.9c0.5-2.5,1.4-5,0.6-7.7c-0.4-1.2-0.7-2.7-2.2-3c-1.5-0.3-1.7,1.3-2.4,2.1c-1.1,1.4-2,2.9-3,4.4
		c-3.8,0.2-6.4,3.2-9.8,4.2c0-0.7-0.1-1.4-0.1-2.1c0,0,0,0,0,0c1.2-0.1,1.9-0.7,2-2c0,0,0,0,0,0c1.2-0.1,1.9-0.7,2-1.9
		c5,1.1,6.5-2.5,8-6c1.7,0.1,2.6-1.4,3.9-2c4.4,3,3.9,7.6,4,12c0,0.6,0,1.2-0.1,1.7C-174.3,452.7-175.3,452.8-176.3,452.9z"/>
	<path class="st4" d="M-134.4,439.9c-2.4-5.3-7.2-8.8-10.9-13c1.4,0.3,2.9,0.8,4.3,1C-135.7,428.5-132.5,434.3-134.4,439.9z"/>
	<path class="st8" d="M-182.2,461.9c1-0.4,1.9-0.9,2.9-1.3c0.7,4.4-2.8,9.3-7.1,10.2C-186.1,467.3-184.1,464.7-182.2,461.9z"/>
	<path class="st4" d="M-176.3,452.9c1-0.1,1.9-0.2,2.9-0.2c0,0.4,0,0.8,0,1.2c-1.3,1-1.8,2.4-2,4c-0.9,1-1.8,1.9-2.8,0.2
		C-179.2,455.7-176.4,454.8-176.3,452.9z"/>
	<path class="st2" d="M-175.3,457.8c0.2-1.6,0.7-3,2-4c-0.2,2.8,0.5,5.7-0.6,8.8C-176,461.1-175,459.3-175.3,457.8z"/>
	<path class="st4" d="M-141.7,462.7c0.4-2.4,2.5-3,4.3-3.8C-136.1,463.3-138.9,462.9-141.7,462.7z"/>
	<path class="st2" d="M-192.4,326c-0.3-1-0.7-1.9-1-2.9c2.1,0.4,4.6,0.6,3.1,3.9C-191.1,327-191.9,326.8-192.4,326z"/>
	<path class="st4" d="M-133.3,452.9c0.3-2.7,0.6-5.3,0.9-8C-131.3,447.7-129.9,450.6-133.3,452.9z"/>
	<path class="st1" d="M-167.4,367c-1.7-0.2-3.6,0.5-5-0.9c0.7-1.3,2-1.1,3.1-1.1C-168,365-167.4,365.7-167.4,367z"/>
	<path class="st2" d="M-185.1,333.8c-0.5-0.9-1.1-1.8-1.6-2.8c2.2,0.4,3.8,1.4,3.3,4c-0.3-0.1-0.6-0.1-1-0.1
		C-184.6,334.6-184.9,334.2-185.1,333.8z"/>
	<path class="st4" d="M-135.7,457.6c0.1-1.4,0.7-2.5,2-3.2C-133.5,456-133,457.7-135.7,457.6z"/>
	<path class="st4" d="M-136.8,458.6c0.4-0.3,0.8-0.7,1.2-1C-135.7,458.3-136.2,458.6-136.8,458.6z"/>
	<path class="st4" d="M-308,438.7c0.8-1.3,1.6-2.6-0.8-2.9c3.9-2,8.1-0.9,12.1-0.8c6,0.1,12.1-1.5,17.9,1.8c2.2,1.2,3.8-1.4,5.8-1.8
		c0.4,1.3,0.7,2.7,1.1,4c-1.1,1.8-1.3,3.8-1.1,5.9c0,0,0,0,0,0c-2,0.3-1.9,1.9-2,3.4c-0.3,3.7-0.1,7.4,2,10.6c-0.3,0.3-0.6,0.7-1,1
		c-1-3.5-5.8-3.7-6.4-7.6c-0.3-1.8-1.3-3-3.4-3.6c-6.6-2-13.1-4.5-19.8-6.6C-305.6,441.3-307.6,441.2-308,438.7z"/>
	<path class="st8" d="M-272,438.9c-0.4-1.3-0.7-2.7-1.1-4c0-0.7,0-1.4,0-2.1c0.3,0,0.6,0,0.9,0c0.8-0.3,0.8-0.6,0-0.9
		c-0.1-0.3-0.1-0.6-0.1-1c0-0.4,0-0.8,0-1.2c0.1-1,0.2-2,0.2-3c2.4,0.3,2,3.2,3.8,4.2c1.1,0.6,2.2,1.2,3.2,1.8
		c-1.3,0.4-3.1-0.5-3.8,1.3c-0.3,0.8-0.3,1.8,0.5,2.2c2,1,4.4,1.1,6.1,0.2c1.9-1.1-1.4-2.1-0.9-3.6c6-0.3,11.6,1.9,17.4,3
		c8.2,1.5,16.3,3.4,24.4,5.2c0.4,0.2,0.7,0.4,1.1,0.6c3.6,1.1,7.3,2.2,10.9,3.3l0,0c0.3,0.3,0.7,0.6,1,0.9c0.7,0,1.4,0,2.1,0.1
		c2,0.5,3.6,3.5,6.1,1c1,0.9,0.8,2.1,0.6,3.2c-2-0.3-3.9-0.7-5.9-1c-0.7-0.1-1.3-0.1-2-0.2c-5.6-3.1-11.8-3.1-17.9-3.9
		c-12.5-2.8-25.2-4.3-37.9-6.1C-266.1,436.7-269,438.3-272,438.9z"/>
	<path class="st3" d="M-343.8,425.9c-1.5-4.3-5.5-6.6-7.9-10.1c-1.1-1.6-2.7-2.3-0.3-4.1c0.9-0.7-0.5-0.7-0.9-0.9
		c0-3.5,0.1-6.9,0-10.4c-0.1-2.9,1.3-4.3,3.9-4.6c4.4-0.5,8.7-1.5,13.2-1c0.3,0.6,0.6,1.3,0.9,1.9c-4.4,0.2-8.9-0.6-13.2,1.2
		c-2.3,1-3.5,2.1-1.8,4.9c1.5,2.4,2.5,4.3,5.7,5.3c3.6,1.1,4.8,6,8.5,7.7c-0.4,3.2-0.5,6.4-3.1,8.9
		C-340,427.4-341.8,427-343.8,425.9z"/>
	<path class="st4" d="M-272.3,431c0,0.3,0.1,0.6,0.1,0.9c0,0.3,0,0.6,0,0.9c-0.3,0-0.6,0-0.9,0c-2.5-1.5-5.2-2.5-8.2-2
		c-5,0.8-9.5-0.6-13.8-3c5.3-4.5,9.9-9.7,16.1-13.1c0.6,0.1,1.2,0.3,1.8,0.4c0.1,1.2,0.2,2.4,0.2,3.7c-3,0.9-2.4,2.5-0.8,4.2
		c0.9,1,2.1,2.9,2.8-0.2c0.9,0,1.8,0.1,2.7,0.1c0.1,1.3,0.2,2.6,0.3,3.9c-0.1,1-0.2,2-0.2,3c-0.1,0.1-0.3,0.3-0.3,0.3
		C-272.5,430.4-272.4,430.7-272.3,431z M-281.4,419.1c-4.6,2.4-3.9,5.6-2.4,9C-284,425.1-280.9,422.8-281.4,419.1z"/>
	<path class="st9" d="M-207.3,448.9c0.7,0.1,1.3,0.1,2,0.2c1.5,1.8,1.7,3.7,0,5.5c-2.6,0.5-5.4,0.9-5.9,4.3c0,0,0,0,0,0
		c-2,0.1-4,0.1-4,3c0,0,0,0.1,0,0.1c-0.4,0.2-0.8,0.4-1.2,0.5c0.4,0.4,0.8,0.8,1.2,1.3c0,1.4,0,2.8,0.1,4.2l0,0.1
		c-0.2,0.3-0.4,0.6-0.6,0.9c-0.6,1-0.5,2-0.2,3c-0.3,0.7-0.6,1.4-0.9,2.1c-4.8,1.3-7.2,4.9-8.7,9.4c0,0,0,0.2,0,0.2
		c-0.3,0.4-0.6,0.7-0.9,1.1c0,0-0.1,0-0.1,0c-2.8,2.2-4.8,5-6.2,8.3c-2.5,1.4-5,2.8-7.4,4.1c-3.6,0.2-7.2-0.7-10.7,0.5
		c-2.3,0.6-4.1-1-6.2-1.2c-1.3-0.5-2.6-1.1-3.8-1.6c-0.1-2,0.7-4.1-1-5.8c-0.4-3.8-3.1-6.7-4.2-10.2c2.7-3.9,1.3-10.8-2.9-13.9
		c-0.2-0.2-0.2-0.5-0.2-0.8c-1.1-6.5-5.2-12.3-3.9-19.3c0,0,0,0,0,0c2.9-2.8,4.6-7.5,10-5.9c12.7,1.7,25.4,3.2,37.9,6.1
		C-219.4,447.2-213.6,449.2-207.3,448.9z"/>
	<path class="st4" d="M-345.9,458.9c2.4,0.3,3.7,1.6,4,4C-344.2,462.6-345.5,461.2-345.9,458.9z"/>
	<path class="st4" d="M-350.9,454.9c2.2,0.5,3.4,1.9,4,3.9C-349.2,458.6-350.5,457.2-350.9,454.9z"/>
	<path class="st4" d="M-340.9,462.9c1.3,0,2,0.7,2,2C-340.2,464.8-340.8,464.2-340.9,462.9z"/>
	<path class="st0" d="M-275.8,512.4c-0.3-0.1-0.7-0.2-0.8-0.4c-0.1-0.2,0.2-0.5,0.3-0.8c0.3,0.1,0.7,0.2,0.8,0.4
		C-275.4,511.8-275.7,512.2-275.8,512.4z"/>
	<path class="st0" d="M-200.2,313c-0.1,0.1-0.2,0.3-0.2,0.4C-200.4,313.2-200.3,313.1-200.2,313C-200.3,313-200.2,313-200.2,313z"/>
	<path class="st1" d="M-335.7,395c-4.5-0.6-8.8,0.5-13.2,1c-2.7,0.3-4.1,1.6-3.9,4.6c0.2,3.5,0,6.9,0,10.4c-3,0.4-6.3,3.1-8.9-0.9
		c3.2-0.7,4-2.9,3.9-5.8c-0.1-3.7-0.5-7.5,1-11.1c8.2-1.6,16.7-1.2,24.9-3.1c0,0,0.5,0,0.5,0l0.5,0c0,1.3,0,2.7,0,4
		c-0.8,0.1-1.6,0.3-2,1.1C-333.9,395-334.8,395-335.7,395z"/>
	<path class="st6" d="M-268.2,314.9c-0.9,0.3-0.9,1.1-1,1.9c-3.9,3.8-5.2,9-7.5,13.6c-0.7,1.5,0.1,2.1,1.5,2.3
		c-0.5,3.4-2.2,2.5-4.1,1.1c-1-0.8-2.1-1-3.1-0.2c-0.7,0.6-0.9,2-0.4,2.2c3.4,1.4,2.8,6,6.1,7.4c-1.8,3.3-3.6,6.6-5.4,9.9
		c-1.1,0-2.3,0.1-3-1.1c0-0.3,0.1-0.6,0.3-0.9c1.4-0.2,1.7-1.1,1.5-2.4c0.2-2.9,3.6-4.9,2.5-8.9c-1.1,1-1.8,1.6-2.5,2.2
		c-2.8,2.4-2.6,6.4-4.4,9.3c-0.5,0.8-1,1.9-2.2,1.5c-1.6-0.5-1.3-1.9-0.9-2.9c0.9-2.3,2.2-4.4,3.3-6.7c1.1-2.4,0.2-3.4-2.4-3.2
		c0.6-1.8,0.3-4.3,2.6-4.9c2.7-0.7,2.3-2.6,2-4.3c-0.3-2.5-2.4-1.7-4-1.9c0.9-2.9,1.9-5.7,3.9-8c0.4,1.8-0.5,3.9,1,5.9
		c2.7-3.4,2.6-8.2,6.9-9.8c-1.9,3.9-3.8,7.7-5.6,11.7c-0.4,0.8-1.4,1.9-0.3,2.7c1.4,1,1.9-0.5,2.5-1.5c4.1-6.8,7.1-14.2,10.6-21.4
		c0.3-0.4,0.7-0.8,1-1.2c0.9,0.6,1.8,1.2,2.7,1.8C-267,310.9-268.3,312.7-268.2,314.9z"/>
	<path class="st7" d="M-270,308.4c-3.5,7.2-6.4,14.6-10.6,21.4c-0.6,1-1.1,2.4-2.5,1.5c-1-0.7-0.1-1.8,0.3-2.7
		c1.8-3.9,3.7-7.8,5.6-11.7c0.4-1.3,0.8-2.6,1.2-3.9c2.1-0.3,2.8-2,2.7-3.5c-0.2-1.8-2.2-1.5-3.7-1.6c1.7-1.9,3.8-0.6,5.7-0.7
		C-270.9,307.6-270.4,308-270,308.4z"/>
	<path class="st7" d="M-285.1,320.9c-2.1,2.3-3,5.1-3.9,8c-0.6,0.6-1.2,1.6-2,0.9c-1.8-1.5,0.6-3,0.2-4.5c2.3-3.8,4.3-7.8,4.9-12.3
		c1.4-0.6,0.9-2,1.1-3c0.6-0.3,1.2-0.6,1.8-1c0.4,0,0.9,0.1,1.3,0.1c-0.1,0.6-0.1,1.2-0.2,1.8c0,0,0,0,0,0c-1.3,0.6-0.7,2-1.1,2.9
		c-1.1,0.8-0.9,1.9-0.9,3C-284,318.4-284.3,319.7-285.1,320.9z"/>
	<path class="st5" d="M-282,310.9c0.1-0.6,0.1-1.2,0.2-1.8c1.5-0.7,3.5,0.1,4.8-1.2c1.4,0.1,3.4-0.2,3.7,1.6
		c0.2,1.5-0.6,3.3-2.7,3.5c-0.1-2.1-1.6-2.1-3.2-2.1C-280.1,310.9-281,310.9-282,310.9z"/>
	<path class="st9" d="M-290.9,325.3c0.4,1.5-2,3-0.2,4.5c0.8,0.7,1.4-0.3,2-0.9c1.5,0.2,3.6-0.6,4,1.9c0.2,1.7,0.7,3.6-2,4.3
		c-2.4,0.6-2,3.1-2.6,4.9c-0.3,1.8-0.3,3.8-2.1,5c-2.7-3.5,0.2-7.9-2.3-12.5c-0.7,2.9-3.2,3.9-2.8,6.6c-2.2,5.3-4.4,10.7-6.5,16
		c-1.7-1.6,0.3-3.6-0.5-5.3c0.1-3.5,0.8-6.7,3.3-9.3c1.1-1.1,0.6-2.1-0.4-2.9c-1.1-0.9-1.7,0.2-2.4,0.7c-1.7,1.2-0.7,3.5-1.9,4.9
		c-1-0.6-4,0.5-2.2-2.6c1.7-2.9-0.4-4.6-2.4-5.3c-2.7-0.9-4.2,1.3-4.7,3.7c-0.4,2.2-0.1,4.6-0.2,6.8c-0.1,1.3-0.1,2.5-0.6,3.9
		c-3.3,10.6-6.3,21.3-9.5,32c-0.2,0.4-0.4,0.8-0.6,1.3c0,0-0.2,0.4-0.2,0.4c-1.9-1.7-1-4.8-3.1-6.4c0-2-0.1-3.9-0.1-5.9
		c1-4.7-0.7-6.8-5.7-6.2c-2.3,0.3-4.6,0.1-7,0.1c-1.4,0-2.5-0.8-1.5-2.2c4.1-5.3,1.1-12.3,4.4-17.7c0.5,0,1-0.2,1.5-0.1
		c6.3,0.8,3.2-3.5,3.4-6.1c0.3-3.7-2.4-1.8-3.6-1.8c-6.8-0.2-13.6-0.4-20.4,0c-4.2,0.2-8.6,0.5-11.9,3.9c0,0-0.1,0-0.1,0
		c-2-0.7-4.3-0.1-5.6-3c-0.9-1.9-3.8-1.5-5.5,0.3c-0.6,0.6-2.5,1.3-0.6,2.5c3.1,2,0.2,3.7-0.8,3.9c-5.7,1.3-8.9,4.3-11.5,9.8
		c-2.6,5.7-4.2,10.5-0.4,15.9c1,1.5,1.4,2.3-0.7,2.6c-1.8,0.3-2.8,2.5-4.9,2c0,0,0,0,0,0c-0.9-2.3-1.6-4.9-5-3.9
		c-0.9-0.2-1.7-0.3-2.6-0.5c-0.1-0.2-0.2-0.4-0.2-0.6c1.3-1.7,0.9-2.7-1.2-3c0,0,0,0,0,0c0.5-3.2-2.1-3.2-4-3.9
		c-3.1-3.1-5.5-6.8-7.4-10.7c-2.6-5.2,1.6-12.1,6.7-14.7c2.2-1.1,3.9-2.9,6.6-2.8c1.6,0,3.7,0.9,4-1.9c0,0,0,0,0,0
		c1.2,0.1,1.9-0.5,2.1-1.7c3.3-0.1,6.6-0.2,9.9-0.3c2.7-0.7,6.1,1.9,8-1.9c0.3,0,0.6,0,0.9,0c2.3,3.3,4.7,2,7-0.1
		c0.7,0,1.3-0.1,2-0.1c6.3,1,12.8-1.1,19,1.1c-4.2,2.3-8.7,0.4-13,1c-1,0.1-2.7-0.4-2.4,1.5c0.3,1.7,1.7,3.1,3.1,2.1
		c4.1-2.9,8.6-1.1,12.9-1.7c1.3-0.2,3,0.8,3.9-1.2c-1.2-1.3-2.8-1.7-4.5-1.7c-0.7-1-1.3-1.9-2-2.9c5-0.4,10,0.4,15-0.6
		c6,0.2,12.1,0.3,18.1,0.5c5.1,0.2,4.1-4.1,5-6.9c0.3,0,0.6-0.1,0.8-0.4c0.7-0.2,1.3-0.4,2-0.7c1.5,0,2.8-0.1,4.2-1.1
		c2.8-2,3.8-0.4,4,2.4c0,0.2,0,0.5-0.1,0.7c-3.3,1.9-2.4,4.5-1.1,7.2c0.7-0.2,1.3-0.3,2-0.5c2.4,0.2,0.5-1.4,0.9-2
		c0.2-2.4,1.1-4.5,2.1-6.6c6.5-0.6,3.3,4.4,4.2,7.1c-0.1,1.2-0.4,2.5,0.6,3.8c3.7-3.6,3.3-9.1,6.2-12.9c1,0.4,3.9-0.7,2,2.1
		C-291.5,321.1-290.8,323.2-290.9,325.3z"/>
	<path class="st2" d="M-326.8,311c1.4-0.1,2.3-0.8,3-2c1.8-0.3,3.2,0.1,3.9,1.9c-1.4,3.9-3.6,5.3-7,2
		C-326.9,312.3-326.9,311.7-326.8,311z"/>
	<path class="st3" d="M-317,319.6c-0.2,0.3-0.4,0.4-0.8,0.4c-1.8-1.6-1.4-2.6,0.8-3.1c0,0,0,0,0,0
		C-316.9,317.8-316.9,318.7-317,319.6z"/>
	<path class="st3" d="M-317.9,313c-0.1,0.4-0.3,0.9-0.4,1.3c-0.1-0.1-0.2-0.2-0.4-0.3C-318.4,313.7-318.2,313.3-317.9,313
		C-317.9,312.9-317.9,313-317.9,313z"/>
	<path class="st6" d="M-355.8,327c0.7,1,1.3,1.9,2,2.9l0,0c-6.2-2.3-12.7-0.1-19-1.1c0-0.5,0.1-1.1,0.1-1.6
		C-367.1,327.2-361.4,327.1-355.8,327z"/>
	<path class="st6" d="M-382.7,329c-1.9,3.8-5.4,1.2-8,1.9C-388.7,327.6-385.4,329.4-382.7,329z"/>
	<path class="st6" d="M-374.8,328.9c-2.3,2.1-4.6,3.3-7,0.1C-379.5,329-377.1,328.9-374.8,328.9z"/>
	<path class="st6" d="M-412.7,363c1.9,0.7,4.5,0.8,4,3.9C-410.8,366.4-412.1,365.1-412.7,363z"/>
	<path class="st6" d="M-402.8,332.9c-0.3,2.8-2.4,1.9-4,1.9C-406.3,332.3-404.3,333.1-402.8,332.9z"/>
	<path class="st6" d="M-408.7,366.9c2.1,0.3,2.5,1.3,1.2,3C-407.9,368.9-408.3,367.9-408.7,366.9z"/>
	<path class="st6" d="M-400.6,331.2c-0.2,1.2-0.9,1.8-2.1,1.7C-402.3,332-401.7,331.3-400.6,331.2z"/>
	<path class="st7" d="M-306.1,327.6c-0.7,0.2-1.3,0.3-2,0.5c0.4-2.4,0.7-4.8,1.1-7.2c0.1-0.2,0.2-0.4,0.1-0.7
		c1.8-2.9,2.4-5.9,1.7-9.3c0,0,0.2-0.3,0.2-0.3c1.3,0,2.5,0.1,3.8,0.1c2.7,0.1,5.5,0.2,8.2,0.3c0.3,0.3,0.6,0.6,0.9,1
		c-0.2,0.3-0.2,0.6-0.1,0.9c-0.1,0.3,0,0.7,0.2,1c0,0.7,0,1.4,0.1,2.1c-0.1,0.3-0.2,0.6-0.3,1c-2.9,3.9-2.5,9.4-6.2,12.9
		c-1-1.2-0.7-2.5-0.6-3.8c2.4-3.4,2.9-7.6,4.7-11.3c0.5-1.1,0.8-2.3-1.5-2.4c-6-0.4-6-0.6-7.3,6.6c-1,2.1-1.9,4.2-2.1,6.6
		C-305.5,326.3-305.8,326.9-306.1,327.6z"/>
	<path class="st5" d="M-305.1,310.9c0.7,3.3,0,6.4-1.7,9.3c-0.2-2.7-1.1-4.4-4-2.4c-1.4,1-2.7,1.2-4.2,1.1c0-0.6,0.1-1.3,0.1-1.9
		C-310.8,316.4-308.6,312.6-305.1,310.9z"/>
	<path class="st4" d="M-314.9,313c0.2-1.6-0.7-3.9,2.3-3.8c0.9,0,1.5,0.6,1.6,1.6C-311,313.6-313.3,312.8-314.9,313
		C-314.9,313-314.9,313-314.9,313z"/>
	<path class="st4" d="M-314.9,317.1c0,0.6-0.1,1.3-0.1,1.9c-0.7,0.2-1.3,0.4-2,0.7c0-0.9,0-1.8,0-2.7
		C-316.2,317-315.6,317-314.9,317.1z"/>
	<path class="st9" d="M-394.8,379c-1.3-0.1-1.9-0.8-2.1-2c3.1,0.7,5.1-2.7,8.1-2.1c0,0,0,0.1,0,0.1
		C-388.8,381.8-389,381.9-394.8,379z"/>
	<path class="st6" d="M-237.2,337.9c2-2.3,3.3-5.2,6.1-6.8c0.4,3.3-2.1,4.9-4,6.9c-3.2,3.3-2.7,6.9,1.4,8.7c1.9,0.8,3.3,2,4.6,3.5
		c-0.1,1.4-0.9,2.2-2.1,2.7c-0.7-3.2-3.3-1.5-5-1.9c0.2-0.9,1.5-1.7,0.5-2.6c-1-0.9-1.9,0.1-2.5,0.8c-3.4,3.6-6.6,7.3-9.9,11
		c-0.2,0-0.5,0-0.7,0c-2.6-2.1,0.6-2.3,1.1-3.4c0.9-1.8,4.2-2.8,2.8-5.1c-1.3-2.1-2.6,2-4.5,1.2c1-2.4,3.9-3.8,3.5-7.1
		c-5.3,5.6-11.5,10.3-15.4,17.2c-2-0.1-1.7-1.6-1.8-2.9c3.3-4.4,6.6-8.8,9.9-13.2c0.5,1.5,1.1,3,2,0.3c0.5-1.5,0.1-3.5,2.2-3.9
		c3.1-0.6,4.2-3,5.6-5.5c-1.1,0.1-1.9,0.2-2.7,0.2c1.6-5,5.6-8.4,8.5-12.6c1.4-2,4.1-2.3,5.7-0.3c1.9,2.3-1.7,2.4-2.1,3.5
		c-1.6,4.6-5.6,7.5-7.8,11.7c2.2,1.6,2.6-0.8,3.8-1.2C-237.8,338.6-237.5,338.2-237.2,337.9z M-241.8,351.3c0.5-1.7,0.6-2.3,0.9-2.9
		c0.4-0.7,1-1.3,1.3-2c1.1-2.4-1-4.7-2.6-3C-244,345.3-243.5,347.8-241.8,351.3z"/>
	<path class="st9" d="M-246.2,337.9c0.8-0.1,1.6-0.1,2.7-0.2c-1.4,2.5-2.5,4.9-5.6,5.5c-2.1,0.4-1.7,2.4-2.2,3.9
		c-0.8,2.8-1.5,1.2-2-0.3c-0.2-0.9,0.9-1.9,0-2.6c-0.7-0.5-1.5,0.1-2,0.7c-0.8,0.8-1.5,1.5-2.3,2.3c-1.2-0.6-3.1,3.6-3.8-0.6
		c-0.1-1.2,2-2.4,0.3-3.4c-1.6-1-2.1,0.8-2.8,1.8c-0.5,0.7-1,1.3-1.5,1.9c-2.2-0.3-2.2-2-1.6-3.3c1.1-2.5-1.2-2.5-2.1-3.5
		c-1.9-2-2.3,0.8-3.5,1c-2.1-0.8-3.5-0.1-4.4,1.9c-3.3-1.3-2.7-6-6.1-7.4c-0.5-0.2-0.3-1.6,0.4-2.2c1-0.8,2.1-0.6,3.1,0.2
		c1.8,1.4,3.5,2.3,4.1-1.1c0,0,0.4-0.2,0.4-0.2c1.8,0.5,3.6,1,5.4,1.5c0,0,0.3,0.2,0.3,0.2c1.5,1.4,3.2,0.6,4.9,0.7
		c0,0,0.2,0.1,0.2,0.1c0.8,1.5,1.6,2.2,3.2,0.6c1-1,2.4-2.5,3.9-0.5c1.8,3.7,3.1,0.1,4.6-0.3c1.2,0.1,2.5-0.1,3.3,1.2
		c-0.3,0.7-1.1,1.2-0.2,2.1C-248,339.5-247.2,338.3-246.2,337.9z"/>
	<path class="st9" d="M-229.1,350.2c-1.3-1.5-2.7-2.6-4.6-3.5c-4.2-1.8-4.7-5.4-1.4-8.7c1.9-2,4.4-3.6,4-6.9
		c1.3-2.4,3.2-4.1,5.1-5.9c2.5-0.5,5.8-1,6.9,1c1.1,2-2.1,3.6-3.5,5.3c-2.8,3.2-5.7,6.3-8.5,9.5c-1.1,0.2-2.5,0.2-1.3,1.9
		c0.5,0.5,0.9,0.9,1.4,1.4c2.2,2.3,4.6,3.7,7.8,1.6c0.7,1.4,1.8,1.1,2.9,0.8c2.3-0.7,3.7,3.4,6.3,1.1c1.7,0.1,3.5-0.4,4.8,1.2
		c0.4,2.7-0.1,4.8-2.9,5.9c-1.1,1-2.1,2.1-3.8,2.1c-1.3-0.1-2.2-0.7-2.3-2.1c0.9-0.6,1.2-1.3,0-1.9c-0.4-0.5-0.7-0.9-1.1-1.4
		c-0.8-0.8-1.4-0.6-1.8,0.4c0,0,0,0,0,0c-1.4-0.4-2.8-0.7-4.2-1.1C-226.3,349.5-227.8,350.2-229.1,350.2z"/>
	<path class="st9" d="M-237.2,337.9c-0.3,0.4-0.7,0.7-1,1.1C-237.8,338.6-237.5,338.2-237.2,337.9z"/>
	<path class="st5" d="M-292.1,312.9c-0.1-0.3-0.1-0.6,0.1-0.9c1.9-0.2,1.7-2.4,3-3.2c1.5,0.1,3-0.3,4.1,1.2c-0.2,1.1,0.3,2.4-1.1,3
		c-1.9,1-3.9,2-5.8,3c0-0.7,0-1.4-0.1-2.1c0.1-0.1,0.3-0.3,0.3-0.3C-291.7,313.4-291.9,313.2-292.1,312.9z"/>
	<path class="st6" d="M-269.3,333.9c-1.8-0.5-3.6-1-5.4-1.5c1.1-2.2,1.9-4.6,3.3-6.6c1.5-2.2,1.5-6.1,5.5-6.1
		c0.6,0.1,1.2,0.2,1.9,0.2c1,1.1,1,2.1,0.1,3.4c-1.8,2.5-3.3,5.1-5,7.7c-0.4-1.2,0.6-2.9-1.5-3.8c-0.6,1.9-1.6,3.7,1.1,4.6
		C-269.3,332.6-269.3,333.3-269.3,333.9z"/>
	<path class="st7" d="M-266,319.8c-4,0.1-3.9,3.9-5.5,6.1c-1.4,2-2.2,4.4-3.3,6.6c0,0-0.4,0.1-0.4,0.1c-1.4-0.1-2.2-0.8-1.5-2.3
		c2.3-4.6,3.6-9.8,7.5-13.6C-268.7,318.4-265.9,317.6-266,319.8z"/>
	<path class="st7" d="M-269,331.1c1.6-2.6,3.2-5.2,5-7.7c0.9-1.3,0.9-2.3-0.1-3.4c1.4-0.2,2.4,0.6,3.3,1.5c-0.4,3.6-3.6,5.9-4.5,9.4
		c-1.5,0.8-1.6,3.1-3.7,3.3c0,0-0.3-0.2-0.3-0.2c0-0.7,0-1.3,0-2C-269.1,331.7-269,331.5-269,331.1z"/>
	<path class="st6" d="M-223.3,345.9c-3.1,2.1-5.6,0.7-7.8-1.6c5.6-5.7,11.1-11.4,16.7-17.1c2.3,4.1-0.8,7.7-1.1,11.6
		C-218.5,340.6-220.9,343.3-223.3,345.9z"/>
	<path class="st6" d="M-232.5,342.9c-1.1-1.7,0.2-1.8,1.3-1.9C-231.6,341.6-232,342.2-232.5,342.9z"/>
	<path class="st5" d="M-214.2,347.8c-2.6,2.3-4-1.8-6.3-1.1c2.3-2.2,3.7-5.3,7.3-6c0.3,0.1,0.6,0.3,0.9,0.4
		C-211.4,343.7-213.7,345.5-214.2,347.8z"/>
	<path class="st7" d="M-213.2,340.7c-3.5,0.6-5,3.8-7.3,6c-1.1,0.3-2.2,0.6-2.9-0.8c2.4-2.6,4.8-5.3,7.9-7.2
		C-214.7,339.4-213.9,340.1-213.2,340.7z"/>
	<path class="st6" d="M-256.9,335.2c-1.6-2-2.9-0.5-3.9,0.5c-1.6,1.6-2.4,0.9-3.2-0.6c4.2-0.6,4.4-4.8,6.4-7.4
		c1.5-1.9,2.7-3.7,5.4-1.9c0.3,0.1,0.7,0.2,1,0.3C-252.7,329.4-254.6,332.4-256.9,335.2z"/>
	<path class="st6" d="M-269,334.2c2-0.2,2.2-2.5,3.7-3.3c0.8,0.1,1.7,0.1,2.5,0.2c-0.4,1.3-0.9,2.6-1.3,3.8
		C-265.8,334.8-267.6,335.5-269,334.2z"/>
	<path class="st3" d="M-369.9,389.6c-1.9-3.8-0.1-7.5,0.5-11.2c0.9-5.3,2.1-10.7,4.5-15.6c0.2,2.7-0.9,5.9,3,7c-1.4,1.6-3,3-2.9,5.4
		c0,5.2,0.9,10.5-0.9,15.6c-0.1,0.4-0.2,0.8-0.3,1.2C-367.9,392.2-368.6,390.5-369.9,389.6z"/>
	<path class="st7" d="M-259.6,321.3c-0.3-0.6-0.1-0.9,0.5-1.1C-259.3,320.6-259.4,321-259.6,321.3
		C-259.6,321.3-259.6,321.3-259.6,321.3z"/>
	<path class="st6" d="M-388.7,374.8c-3-0.6-5,2.8-8.1,2.1c-1.4,0-2.8-0.1-2.9-2c2.1,0.5,3.1-1.6,4.9-2c2.1-0.4,1.7-1.2,0.7-2.6
		c-3.7-5.4-2.2-10.2,0.4-15.9c2.6-5.5,5.8-8.5,11.5-9.8c1-0.2,3.9-1.9,0.8-3.9c-1.9-1.2-0.1-1.9,0.6-2.5c1.7-1.8,4.6-2.2,5.5-0.3
		c1.3,2.9,3.6,2.3,5.6,3c-0.6,1.7-2.2,1.7-3.6,2.1c-4.7,1.6-9.3,3.3-13.3,6.4c-7.6,5.9-8.9,14.2-3.6,22.3
		C-389.7,372.8-389.3,373.8-388.7,374.8z"/>
	<path class="st6" d="M-404.7,371c3.4-0.9,4.1,1.7,5,3.9C-402.5,375-403.8,373.2-404.7,371z"/>
	<path class="st1" d="M-199.4,450.1c0.2-1.2,0.4-2.3-0.6-3.2c0.3-1.3,0.6-2.6,1-3.9c0.6-1,1.2-2,1.8-3.1c0.6,3.9-1.9,9.1,4.1,11.1
		c0,0.7,0.1,1.4,0.1,2.1c-0.1,3.2-0.2,6.5-0.3,9.7c-0.6,0.1-1.1,0.2-1.7,0.2c-0.5-2.8,0.9-7.3-3.5-7.2c-2,0.1-3.1-1.1-4.7-1.1
		c0.6-1.2,1.6-1.8,2.8-2c0.7-0.1,1-0.4,1-1.1C-199.4,451.1-199.4,450.6-199.4,450.1z"/>
	<path class="st8" d="M-173.4,408.1c-0.8,3.5-4.5,0.5-5.9,2.7c-1.3,0-2.7,0-4,0c-7.6-2.6-7.6-2.6-10,3.9c-0.7,0-1.3,0-2,0
		c2-4.4-1-4-3.7-4c0,0-0.1,0-0.1,0c0-2.6,0.1-5.3,0.1-7.9c1.7,1.3-0.7,5.6,3.6,4.9c0.8,0,1.6-0.1,2.4-0.1
		C-186.5,407.8-179.9,407.9-173.4,408.1z"/>
	<path class="st5" d="M-199,410.8c2.7,0,5.7-0.3,3.7,4c0,0,0,0.1,0,0.1c-1.4,0-1.9,0.8-1.8,2.1c0,1.7-2.5,2-2.2,3.9
		c-3.8,2.7-0.7,6.7-1.7,9.9c0,0.7-0.1,1.4-0.1,2.1c-0.6,0-1.3,0-1.9,0l0,0c0-1.3,0-2.6,0-3.9c0-1.3,0-2.6,0-4c0-1.6,0.1-3.3,0.1-4.9
		C-200,417.7-198.7,414.6-199,410.8z"/>
	<path class="st2" d="M-201.1,430.8c1-3.2-2.1-7.2,1.7-9.9c2.7,0.4,2.3,2.4,2.1,4.1c-0.3,3,1.1,6.2-1,8.9
		C-199.6,433.1-199,430.7-201.1,430.8z"/>
	<path class="st2" d="M-192.3,418.5c0.3,2.8,3,4.5,3,7.4c0,1.1,0.3,2.5-1.3,2.8c-1.6,0.3-2.5-0.9-2.5-2.3
		C-193.2,423.7-193.7,421.1-192.3,418.5z"/>
	<path class="st1" d="M-193.3,414.8c2.4-6.6,2.4-6.6,10-3.9C-185.8,414.2-190.5,412-193.3,414.8z"/>
	<path class="st2" d="M-192.1,430.9c0.9,2.3,1.6,3.8,2.3,5.5c-1.9,0.5-4,1.3-5-0.6C-196.1,433.4-193.7,432.6-192.1,430.9z"/>
	<path class="st8" d="M-201.1,430.8c2.1,0,1.6,2.4,2.8,3.1c-0.1,2.1,2.6,3.7,1,6c-0.6,1-1.2,2-1.8,3c0.4-3.6-0.9-6.8-2.2-10
		C-201.2,432.2-201.2,431.5-201.1,430.8z"/>
	<path class="st2" d="M-177.3,438.9c-1.3,0.6-2.2,2.1-3.9,2c0-0.7-0.1-1.3,0-2c0.2-1.5-0.7-3.7,1.7-3.9
		C-176.6,434.8-177.5,437.3-177.3,438.9z"/>
	<path class="st8" d="M-197.2,416.9c-0.1-1.3,0.4-2.1,1.8-2.1C-195.2,416.2-195.9,416.9-197.2,416.9z"/>
	<path class="st1" d="M-192,444.5c-0.3-0.1-0.7-0.2-0.7-0.4c-0.1-0.2,0.2-0.5,0.3-0.8c0.3,0.1,0.7,0.2,0.7,0.4
		C-191.7,443.9-191.9,444.2-192,444.5z"/>
	<path class="st1" d="M-189.2,447c-0.1,1.2-0.8,1.9-2,1.9C-191.2,447.5-190.6,446.9-189.2,447z"/>
	<path class="st1" d="M-191.2,448.9c-0.1,1.3-0.7,1.9-2,2C-193.2,449.5-192.6,448.9-191.2,448.9z"/>
	<path class="st1" d="M-195.3,364.9c0,3.6,0,7.2,0,11.4c0.6-0.7,0.9-0.9,0.9-1.2c0.5-8.4,0.5-8.2,9.1-7.5c5.7,0.4,11.5,0.2,17.1,2.1
		c-0.6,2.8-0.6,5.7-2.3,8.2c-0.9-0.3-1.8-0.7-2.7-1c0.7-6.5-4.2-5.7-8.1-6c-1.1,0-2.3,0-3.4,0c-6.2,0-6.2,0-4.5,6
		c-3.7,1.4-1.2,4.5-1.9,6.7c-0.3,1.7,1.2,2.2,2,3.2c-4.3-0.6-5.3,1.4-5.1,5.4c0.2,2.8,1.1,6-0.9,8.6c-1,0-2,0-3,0
		c0-0.8-0.2-1.6-1-2.1c0-1.3,0.1-2.7,0.1-4c0.2-0.2,0.5-0.5,0.6-0.8c2.7-8,0.4-16.4,1.9-24.5c0.3-1.7-1.4-2.8-3.3-2.9
		c0-0.6-0.1-1.2-0.1-1.8l0.4,0l0.4,0c0.4,0,0.7,0,1.1,0C-197.2,364.9-196.3,364.9-195.3,364.9z"/>
	<path class="st5" d="M-206.2,353.1c2.3,2.1,0.8,5.7,3,7.8c-3.3-0.1-3.3-4.1-6-4.9c-0.6-1.5-1.9-1.2-3.1-1.1
		c2.8-1.1,3.3-3.2,2.9-5.9C-206.3,348.8-208.2,352.5-206.2,353.1z"/>
	<path class="st6" d="M-173.5,392.2c-0.1,0.2-0.1,0.4,0,0.6c-1.7,2-3.9,3.6-4.9,6.1c-3.3-1.3-6.5-2.7-9.8-4c-0.9-1-1.9-1.9-2.8-2.9
		c-0.1-0.4-0.2-0.7-0.2-1.1c0.3,0,0.7,0,1,0c3,0,6.1,0,9.1,0C-178.6,391.1-175.8,390.2-173.5,392.2z"/>
	<path class="st8" d="M-191.4,390.8c0.1,0.4,0.2,0.7,0.2,1.1c0,1,0,1.9,0,2.9c-3.9,1.8-2.1,4.5-1.1,7c-1,0.7-2,1.4-3,2c0-1,0-2,0-3
		c2-2.7,1.1-5.8,0.9-8.6c-0.2-4,0.9-6,5.1-5.4c5.6,0.3,11.2,0.6,16.9,0.9c1.3,1.9-1.3,2.8-1.2,4.4c-2.3-1.9-5.1-1.1-7.7-1.4
		c-0.6-2.2-2.5-1.6-4-1.9c-1.8,0-3.6,0-5.3,0.1C-191.7,389.1-192.3,389.7-191.4,390.8z"/>
	<path class="st4" d="M-178.4,398.8c1.1-2.5,3.2-4.1,4.9-6.1c3-0.2,1.4,4.3,4.2,4.1c-0.1,1.3-0.1,2.7-0.2,4
		C-172.9,401.9-175.3,398.7-178.4,398.8z"/>
	<path class="st3" d="M-197,468.6c-0.7,0.1-1.5,0.1-2.2,0.2c-3.6,0.3-7.1,0.5-10.7,0.8c-1.6,0.2-3,0.3-3.3-1.8
		c1.6-0.2,2.6-1.1,1.3-2.5c-0.9-1.1-1.4-2.1-1.3-3.4c0.6-1.1,2.3-1.4,2-3.1c0,0,0,0,0,0c3.6,0.5,5.5-2.3,7.9-4.1l0,0
		c1.6,0,2.7,1.1,4.7,1.1c4.4-0.1,3,4.3,3.5,7.2C-195.9,464.8-197.1,466.5-197,468.6z"/>
	<path class="st5" d="M-193.4,462.7c0.1-3.2,0.2-6.5,0.3-9.7c3.4-1,6-4,9.8-4.2c0,2,0,4,0,5.9c-0.7,0-1.3,0.1-2,0.1
		c-6.9-1.9-6.9-1.9-7,5.5c0,0.8,0,1.6,0,2.4C-192.7,462.8-193.1,462.7-193.4,462.7z"/>
	<path class="st6" d="M-192.3,462.8c0-0.8,0-1.6,0-2.4c0-7.4,0.1-7.4,7-5.5c-0.7,1.1,1.5,5-2.7,2.4c-1.7-1-2.7,0.3-3.2,1.9
		C-191.4,460.4-190.9,461.9-192.3,462.8z"/>
	<path class="st2" d="M-250.8,497.5c3.5-1.2,7.1-0.3,10.7-0.5C-243.7,498.6-247.3,497.8-250.8,497.5z"/>
	<path class="st3" d="M-308,438.7c0.4,2.5,2.5,2.6,4.4,3.2c6.6,2.1,13.1,4.6,19.8,6.6c2.1,0.6,3.2,1.8,3.4,3.6
		c0.6,3.9,5.4,4.2,6.4,7.6c0,1.3,0,2.7,0,4c-3.9,0.4-7.3-1-11-2.3c-5.3-1.8-10-4.6-15.4-6.2c-5.9-1.7-11.4-4.9-16.5-8.5
		C-314.4,443.7-311.4,441-308,438.7z"/>
	<path class="st5" d="M-269,464.9c4.2,3.1,5.6,10,2.9,13.9c-0.5-1-0.9-2-1.4-3c0.2-1,0.4-1.9-0.5-2.7c0,0-0.1-0.4-0.1-0.4
		C-267.5,469.9-269.2,467.5-269,464.9z"/>
	<path class="st5" d="M-269.2,464.1c-2.2-1.1-1.9-4-3.8-5.3c-2.1-3.3-2.3-6.9-2-10.6c0.1-1.4,0-3,2-3.4
		C-274.4,451.8-270.3,457.6-269.2,464.1z"/>
	<path class="st5" d="M-263.1,438.9c-5.4-1.5-7.2,3.1-10,5.9c-0.1-2.1,0-4.1,1.1-5.9C-269,438.3-266.1,436.7-263.1,438.9z"/>
	<path class="st9" d="M-203.3,424.9c0,1.3,0,2.6,0,4c-1.4,0.1-2,0.9-1.9,2.2c0.1,1.2,0.9,1.6,1.9,1.7c0,0,0,0,0,0
		c-0.5,3.9,4.1,7.3,1,11.5c-2.8-4.9-2.9-4.9-7.6-4.7c2.9,1.7,5.5,3.1,3.5,6.2c-0.7,0-1.4,0-2.1-0.1c-0.3-0.3-0.7-0.6-1-0.9
		c0,0,0,0,0,0c-2.9-3.6-6.4-5.1-10.9-3.3c-0.4-0.2-0.7-0.4-1.1-0.6c0-0.9-0.2-1.7-1.2-2c-6.7-1.7-12.9-5.4-20.2-4.3
		c-0.8,0.1-1.7-0.1-2.4-0.5c-7.3-3.9-15.2-3.8-23.2-3.3c-1.7-1-1.4-3.8-3.8-4.2c-0.1-1.3-0.2-2.6-0.3-3.9c2.4-3.8-2-5.2-2.9-7.8
		c1.2-4.5,3.4-2.9,6.7,0.6c-2.1-5.9-0.4-8.3,3.6-10.3c1.7-0.9,5.2-2.1,3.7-5.7c0.8-0.7,1.7-1.5,2.5-2.2c4.2-3.5,4.2-3.5,5.6,1.6
		c0.7,4.1,3.3,5.7,7.3,5.8c8.2,0,16.4,0.1,24.6,0.1c0.2,1.8,2,2.5,2.7,1.6c1.1-1.3,3.6-2,3.2-4.3c-0.8-5.1,1.8-5.9,5.9-5.4
		c1.5,3.2,4.1,0.2,6,1.1c1.2,3.1,2.4,6.1,2.2,9.6c-0.1,1.2,0.6,2.5,1.9,3.2c0,0,0.1,0,0.1,0c0.3,3.8-0.9,7-4.1,9.2
		C-205.5,421.6-206.6,423.2-203.3,424.9z"/>
	<path class="st6" d="M-268.2,431c8-0.5,15.8-0.6,23.2,3.3c0.7,0.4,1.6,0.6,2.4,0.5c7.3-1.1,13.5,2.5,20.2,4.3c1,0.3,1.1,1.1,1.2,2
		c-8.1-1.7-16.2-3.7-24.4-5.2c-5.8-1-11.4-3.3-17.4-3c-0.6,0-1.3-0.1-1.9-0.1C-266.1,432.2-267.1,431.6-268.2,431z"/>
	<path class="st6" d="M-206.2,445.8c2-3.2-0.6-4.6-3.5-6.2c4.6-0.2,4.7-0.1,7.6,4.7c3.1-4.2-1.5-7.6-1-11.5c0.6,0,1.3,0,1.9,0
		c1.3,3.2,2.6,6.4,2.2,10c-0.3,1.3-0.6,2.6-1,3.9C-202.6,449.3-204.2,446.3-206.2,445.8z"/>
	<path class="st1" d="M-265,432.8c0.6,0,1.3,0.1,1.9,0.1c-0.6,1.5,2.8,2.4,0.9,3.6c-1.7,1-4.1,0.8-6.1-0.2c-0.8-0.4-0.8-1.4-0.5-2.2
		C-268,432.3-266.3,433.2-265,432.8z"/>
	<path class="st5" d="M-207.3,448.9c-6.3,0.3-12.2-1.6-17.9-3.9C-219.1,445.7-212.9,445.8-207.3,448.9z"/>
	<path class="st5" d="M-199.4,450.1c0,0.5,0,1,0,1.5c-0.3,0.4-0.7,0.7-1,1.1c-1.3,0.2-2.3,0.8-2.8,2c0,0,0,0,0,0
		c-0.7-0.1-1.4-0.2-2-0.2c1.7-1.8,1.5-3.6,0-5.5C-203.3,449.4-201.4,449.7-199.4,450.1z"/>
	<path class="st6" d="M-220.2,441.6c4.5-1.9,8-0.3,10.9,3.3C-212.9,443.8-216.5,442.7-220.2,441.6z"/>
	<path class="st1" d="M-272.3,431c-0.1-0.3-0.2-0.5-0.3-0.8c0-0.1,0.2-0.2,0.3-0.3C-272.2,430.2-272.3,430.6-272.3,431z"/>
	<path class="st1" d="M-272.1,432.8c0-0.3,0-0.6,0-0.9C-271.4,432.2-271.3,432.5-272.1,432.8z"/>
	<path class="st6" d="M-209.3,444.9c0.3,0.3,0.7,0.6,1,0.9C-208.6,445.5-208.9,445.2-209.3,444.9z"/>
	<path class="st4" d="M-334.8,413.9c-0.3,0.7-0.6,1.4-0.9,2.1c-3.6-1.8-4.9-6.6-8.5-7.7c-3.2-1-4.2-2.9-5.7-5.3
		c-1.7-2.8-0.5-3.9,1.8-4.9c4.3-1.8,8.8-1,13.2-1.2c0.3,2,0.7,4,1,6c0,1.1-0.2,2.2,0.8,3c0.1,0.3,0.2,0.7,0.2,1
		c-0.1,0.6-0.2,1.3-0.4,1.9c-1.4,0.3-1.8,1.2-1.4,2.5c0,0.5,0,1.1,0.1,1.6c-0.7,0.2-1.6-1.1-1.9,0.2
		C-336.5,413.8-335.5,413.8-334.8,413.9z"/>
	<path class="st6" d="M-261.2,399.7c1.5,3.7-2,4.9-3.7,5.7c-3.9,2-5.7,4.4-3.6,10.3c-3.3-3.4-5.5-5-6.7-0.6c-0.7,0-1.3,0-2,0
		c-0.6-0.1-1.2-0.3-1.8-0.4c0.1-0.4,0.3-0.9,0.4-1.3c0.3,0,0.5-0.2,0.7-0.4C-272.2,408.7-267.4,403.4-261.2,399.7z"/>
	<path class="st8" d="M-277.2,415.1c0.7,0,1.3,0,2,0c0.9,2.6,5.3,4,2.9,7.8c-0.9,0-1.8-0.1-2.7-0.1c-0.2-1.5,0.7-3.6-1.9-4
		C-277,417.6-277.1,416.4-277.2,415.1z"/>
	<path class="st2" d="M-281.4,419.1c0.5,3.6-2.6,5.9-2.4,9C-285.3,424.8-286.1,421.6-281.4,419.1z"/>
	<path class="st2" d="M-276.9,418.8c2.7,0.4,1.7,2.5,1.9,4c-0.7,3.1-1.9,1.2-2.8,0.2C-279.4,421.3-279.9,419.7-276.9,418.8z"/>
	<path class="st1" d="M-311.8,392c0.6,0,1.3,0,1.9,0c-0.1,4.2-3.5,7-4.9,10.7c-1.1,2.8-2.8,5.5-4.3,8.2c-0.8,0-1.6,0-2.4,0
		c0.3-1,0.5-1.9,0.8-2.9c3.2-4.6,5.9-9.4,7-15C-313,392.6-312.4,392.3-311.8,392z"/>
	<path class="st1" d="M-304.1,403.1c-0.5-4.1,2-4.6,5.1-4.2c6.9,1.9,14,0.6,21,1c0.3,0.5,0.5,0.6,0.8,0l0.1-0.1
		c1.6,0.3,3.1,0.6,3.6,2.4c-2.5,1.7-5.5-0.4-7.6,1.6c-1,0-2,0-3-0.1c-3.7-1.3-7.3-1.3-11,0c-0.3,0-0.7,0.1-1,0.1c-0.3,0-0.7,0-1,0
		c-0.7-0.1-1.4-0.2-2.1-0.2c-1.4-1-2.7-1.1-3.9,0.3C-303.4,403.7-303.7,403.4-304.1,403.1z"/>
	<path class="st3" d="M-304.9,421.9c-0.4-0.4-0.8-0.8-1.2-1.2c4.3-5.3,8.6-10.6,12.8-15.9c2,0.1,2.3,1.4,2.2,3
		C-296.3,411.8-300.2,417.3-304.9,421.9z"/>
	<path class="st3" d="M-292.9,418.3c-0.1-0.5-0.1-1-0.2-1.5c3.5-2.8,5.4-7.4,10-8.9c1.3,1,0.8,2.4,0.8,3.8
		C-284.9,415.2-289.2,416.2-292.9,418.3z"/>
	<path class="st1" d="M-331.6,406.6c0.2-0.9,0.5-1.8,0.7-2.8c2.2-0.2,3.4-1.1,2.2-3.4c-0.9-1.8-1.4-3.6-1.2-5.5
		c1.6-0.9,0.4-3.1,1.8-4.1c1.5,0.5,0.9,3.3,3.1,3c-1.8,3.7-2.3,7.5,0.2,11.1c-0.1,0.3-0.1,0.7-0.2,1c-1.1,0.4-2.1,0.8-3.2,1.2
		C-329.3,407-330.5,406.8-331.6,406.6z"/>
	<path class="st3" d="M-334.6,411.3c-0.4-1.3,0-2.2,1.4-2.5C-332.9,410.1-333.5,410.8-334.6,411.3z"/>
	<path class="st3" d="M-334.8,413.9c-0.6-0.1-1.7-0.1-1.6-0.8c0.3-1.3,1.3-0.1,1.9-0.2c0,0.3,0.1,0.5,0.1,0.8
		C-334.5,413.8-334.7,413.8-334.8,413.9z"/>
	<path class="st1" d="M-205.3,454.5c0.7,0.1,1.4,0.2,2,0.2c-2.4,1.8-4.3,4.6-7.9,4.1C-210.7,455.4-208,455-205.3,454.5z"/>
	<path class="st1" d="M-213.3,461.9c-0.7,0-1.3-0.1-2-0.1c0-2.8,2-2.9,4-3C-211,460.4-212.6,460.8-213.3,461.9z"/>
	<path class="st1" d="M-215.3,461.8c0,0.6,0,1.2,0,1.8c-0.4-0.4-0.8-0.8-1.2-1.3C-216,462.2-215.7,462-215.3,461.8z"/>
	<path class="st8" d="M-329.9,394.9c-0.3-0.3-0.7-0.7-1-1c0-1.3,0-2.7,0-4c0-1,0-2,0-3c1.1,0,2.3-0.2,3,1c0,1-0.1,1.9-0.1,2.9
		C-329.5,391.8-328.3,394-329.9,394.9z"/>
	<path class="st8" d="M-359.8,378.9c0-1.3,0-2.7-0.1-4c3.7-2.4,7.9-1.8,11.9-2.1c1.1-0.3,2.2-0.6,3.3-0.9c0.5,0,1.1-0.1,1.6-0.1
		c1.7,0,3.3,0,5,0c1.2,0.2,2.1,0.7,2.2,2.2c-2.3,0.7-4.6,1.4-7,2c-4.6,1-9.8-0.6-13.9,3C-357.8,378.9-358.8,378.9-359.8,378.9z"/>
	<path class="st1" d="M-359.8,378.9c1,0,2,0,3,0c0.5,2.8-0.5,6.3,3,8c0,0.3,0,0.6,0,0.9c-1,1.1-2,2.1-3,3.2c-2.3,0.1-3.1-1-3-3.3
		C-359.7,384.7-359.8,381.8-359.8,378.9z"/>
	<path class="st7" d="M-291.9,345c1.8-1.2,1.8-3.2,2.1-5c2.5-0.2,3.5,0.8,2.4,3.2c-1.1,2.3-2.3,4.4-3.3,6.7c-0.4,1-0.7,2.4,0.9,2.9
		c1.3,0.4,1.7-0.7,2.2-1.5c1.8-2.9,1.6-6.8,4.4-9.3c0.7-0.6,1.4-1.3,2.5-2.2c1.1,4-2.3,6-2.5,8.9c-0.5,0.8-1,1.6-1.5,2.4
		c-0.2,0.3-0.3,0.6-0.3,0.9c-1.4,2.4-2.7,4.9-4.1,7.2c-1.6,2.7,0.1,3,2.2,3c-4.3,1.3-8.7,1.4-13-0.1c1.4-1.3,2-2.9,2.4-4.7
		c1.5-2.3,3-4.6,3.5-7.4C-293,348.4-292.1,346.9-291.9,345z"/>
	<path class="st7" d="M-276.7,343.1c0.9-2,2.3-2.7,4.4-1.9c-0.5,1.3-1.8,3,0.3,3.7c3.2,1.1,2,2.7,1,4.5c-0.8,1.4-1.5,2.9-2.2,4.3
		c-1.4,2-2.9,3.8-4.1,5.9c-1.6,2.8,0.6,2.4,2.2,2.3c0.1,0.4,0.1,0.8,0.2,1.2l0.1,0.1c-2.4,1-4.6-3.2-6.9-0.3c-2.3,2.9-3.2,0.4-4.4-1
		c0-3.6,3-5.8,4.1-8.9C-280.3,349.7-278.5,346.4-276.7,343.1z M-279.8,357.1c3.2-1.4,3.5-5,5.6-7.3c0.5-0.6,0.5-1.7-0.3-2.3
		c-0.9-0.7-1.5,0.2-1.9,0.9c-1.4,2.6-3.5,4.9-4.1,7.9c-1.2,0.5-1.8,1.3-1.4,2.6c0.1,0.2,0.5,0.4,0.7,0.4
		C-280.1,359.1-280,358.1-279.8,357.1z"/>
	<path class="st9" d="M-279.1,310.9c1.5,0,3,0,3.2,2.1c-0.4,1.3-0.8,2.6-1.2,3.9c-4.4,1.6-4.3,6.5-6.9,9.8c-1.5-2-0.7-4.1-1-5.9
		c0.8-1.2,1.2-2.5,1.1-4C-281.7,315.5-278.4,314.9-279.1,310.9z"/>
	<path class="st5" d="M-282.1,352.9c-1,3.1-4,5.3-4.1,8.9c-0.3,0.1-0.6,0.2-0.8,0.3c-2.1,0-3.8-0.3-2.2-3c1.4-2.4,2.7-4.8,4.1-7.2
		C-284.4,353.1-283.2,352.9-282.1,352.9z"/>
	<path class="st5" d="M-284.7,350.9c0.5-0.8,1-1.6,1.5-2.4C-283,349.8-283.3,350.7-284.7,350.9z"/>
	<path class="st6" d="M-291.8,316c1.9-1,3.9-2,5.8-3c-0.6,4.5-2.5,8.5-4.9,12.3c0-2.1-0.6-4.2,0.8-6.2c1.9-2.9-1-1.7-2-2.1
		C-292,316.6-291.9,316.3-291.8,316z"/>
	<path class="st6" d="M-279.1,310.9c0.7,4-2.5,4.6-4.9,6c0-1.1-0.2-2.3,0.9-3c1.3-0.6,1.1-1.8,1.1-2.9c0,0,0,0,0,0
		C-281,310.9-280.1,310.9-279.1,310.9z"/>
	<path class="st5" d="M-282,311c0,1.1,0.2,2.3-1.1,2.9C-282.7,312.9-283.3,311.6-282,311z"/>
	<path class="st6" d="M-309.3,373.9c-0.3,0.6-0.6,1.1-0.8,1.7c-3.4,1.8-3.4,5.7-5,8.6c-0.9,1.6-1.6,3.9-3.6,3
		c-1.8-0.8,0.3-2.5,0.6-3.8c0.2-1,0.6-1.9,1-2.8c0.7-1.9,2.6-4.8,0.2-5.6c-2.8-1-0.8,3.2-2.5,4.1c-0.5-0.4-0.9-0.9-1.4-1.3
		c2.3-9.5,5.3-18.7,8.4-27.9c1-3.1,2.4-6.8,1.2-11.8c-1.6,3.5-2.6,5.7-3.6,7.8c0-2.3-0.2-4.6,0.2-6.8c0.4-2.4,2-4.6,4.7-3.7
		c2,0.7,4.1,2.4,2.4,5.3c-1.8,3,1.2,2,2.2,2.6c-2.9,7.8-5.8,15.7-8.9,23.5c-0.5,1.2-2.6,2.4-0.3,3.5c2.4,1.1,1.3-2,2.6-2.5
		C-309.5,369.1-312.7,373-309.3,373.9z"/>
	<path class="st7" d="M-319.6,379.1c1.7-1-0.3-5.1,2.5-4.1c2.4,0.9,0.5,3.7-0.2,5.6c-0.3,0.9-0.8,1.8-1,2.8c-0.3,1.3-2.4,3-0.6,3.8
		c2,0.9,2.8-1.4,3.6-3c1.6-2.9,1.6-6.8,5-8.6c0,0,0.3,0.3,0.3,0.3c-1,2.7-1.8,5.6-3.2,8.1c-1.6,2.9-0.6,4.1,2.1,4.7
		c-0.3,1.1-0.6,2.1-0.9,3.2c-0.6,0.3-1.2,0.7-1.8,1c-1.8-1.2-3.5-0.1-5.3,0c-2.2-1.3-4.1-0.1-6,0.8c-2.3,0.3-1.6-2.5-3.1-3
		c0-1,0.1-1.9,0.1-2.9c0.3-0.3,0.7-0.6,1-1c1.2-0.9,0.9-2.4,1.2-3.6c0,0,0.2-0.4,0.2-0.4c0.2-0.4,0.4-0.8,0.6-1.3
		c3.1-10.7,6.2-21.3,9.5-32c0.4-1.3,0.4-2.6,0.6-3.9c1-2.1,2-4.3,3.6-7.8c1.1,5-0.2,8.7-1.2,11.8c-3.1,9.2-6.1,18.5-8.4,27.9
		c-1.7,3.7-2.8,7.5-3,11.5C-321.7,386.2-320.1,382.9-319.6,379.1z"/>
	<path class="st6" d="M-355.7,340c-4.7,0.4-9.3,1.9-14,0.9c3.3-3.4,7.7-3.6,11.9-3.9c6.8-0.4,13.6-0.2,20.4,0c1.2,0,3.9-1.9,3.6,1.8
		c-0.2,2.6,2.8,6.9-3.4,6.1c-0.5-0.1-1,0.1-1.5,0.1c0,0-0.3-0.3-0.3-0.3c0.4-1.1,0.5-2.3,1.1-3.2c1-1.6,0.7-2.7-1.2-2.6
		C-344.7,339.3-350.3,338-355.7,340z"/>
	<path class="st7" d="M-312.1,367.8c-1.2,0.5-0.2,3.7-2.6,2.5c-2.3-1.1-0.2-2.3,0.3-3.5c3-7.8,5.9-15.7,8.9-23.5
		c1.3-1.4,0.3-3.6,1.9-4.9c0.7-0.6,1.4-1.6,2.4-0.7c1,0.8,1.5,1.7,0.4,2.9c-2.5,2.6-3.3,5.8-3.3,9.3c-3.3,3-4.9,6.5-4.1,11
		C-311.3,362.1-310.9,365.4-312.1,367.8z"/>
	<path class="st7" d="M-303.6,355.1c2.2-5.3,4.4-10.7,6.6-16c1.2,0.1,3.3-0.8,2.3,2c-0.7,1.8-1.1,3.7-1.6,5.6c-2,1.5-2,4-2.7,6.1
		c-1.4,2.7-2.7,5.5-4.1,8.2c-0.9,0.7-1.4,2.1-2.9,1.9c0-0.6,0-1.3,0.1-1.9C-305.2,359-304.4,357.1-303.6,355.1z"/>
	<path class="st6" d="M-338.7,345.1c-3.4,5.4-0.3,12.4-4.4,17.7c-1,1.3,0.1,2.1,1.5,2.2c2.3,0,4.7,0.2,7-0.1c5-0.7,6.7,1.5,5.7,6.2
		c-0.6-0.6-1.2-1.2-1.9-1.9c-1-2.5-3.3-2.4-5.4-2.4c-3.4,0-6.9,0.1-10.3,0.2c0.1-1-0.1-2.2,0.3-2.9c3.3-4.5,5-9.4,4.5-15.2
		c-0.2-1.7,0.7-3.6,2.8-4.2L-338.7,345.1z"/>
	<path class="st1" d="M-330.9,369.2c0.6,0.6,1.2,1.2,1.9,1.9c0,2,0.1,3.9,0.1,5.9c-0.2,3.5-0.4,7,2,10c-0.3,0.3-0.7,0.6-1,1
		c-0.7-1.2-1.9-1-3-1c-0.3,0-0.7,0-1,0c0,0,0,0,0,0c-0.1-2.5,0.2-5-0.4-7.4c-0.5-2.1,0.2-5.4-3.6-5.6c0-1.4-0.9-2-2.2-2.2
		c0.4-0.3,0.9-0.6,1.3-0.9C-334.8,370.3-332.1,372.2-330.9,369.2z"/>
	<path class="st6" d="M-303.1,319c1.3-7.2,1.3-7,7.3-6.6c2.4,0.2,2.1,1.3,1.5,2.4c-1.8,3.7-2.3,7.9-4.7,11.3
		C-299.8,323.4-296.6,318.3-303.1,319z"/>
	<path class="st6" d="M-353.8,329.9c1.7,0,3.2,0.4,4.5,1.7c-0.9,2-2.6,1.1-3.9,1.2c-4.3,0.6-8.8-1.2-12.9,1.7
		c-1.5,1-2.9-0.4-3.1-2.1c-0.3-1.9,1.3-1.4,2.4-1.5C-362.5,330.4-358,332.2-353.8,329.9C-353.9,330-353.8,329.9-353.8,329.9z"/>
	<path class="st6" d="M-296.3,346.7c0.5-1.9,0.9-3.8,1.6-5.6c1-2.8-1-1.9-2.3-2c-0.4-2.6,2.1-3.7,2.8-6.6c2.4,4.6-0.4,9,2.3,12.5
		c-0.2,1.9-1.1,3.4-2.2,4.9C-295.3,349.2-294.8,347.2-296.3,346.7z"/>
	<path class="st6" d="M-303.6,355.1c-0.8,1.9-1.6,3.8-2.4,5.8c-0.7,0-1.5-0.1-2.2-0.1c-0.9-4.5,0.8-8,4.1-11
		C-303.3,351.5-305.3,353.5-303.6,355.1z"/>
	<path class="st8" d="M-326.9,387c-2.4-3-2.2-6.5-2-10c2.2,1.6,1.2,4.7,3.1,6.4C-326,384.6-325.7,386-326.9,387z"/>
	<path class="st5" d="M-307,320.9c-0.4,2.4-0.7,4.8-1.1,7.2C-309.3,325.4-310.3,322.8-307,320.9z"/>
	<path class="st5" d="M-306.1,327.6c0.3-0.7,0.6-1.4,0.9-2C-305.6,326.2-303.7,327.9-306.1,327.6z"/>
	<path class="st8" d="M-325,381.7c-0.2,0.4-0.4,0.8-0.6,1.3C-325.4,382.6-325.2,382.1-325,381.7z"/>
	<path class="st6" d="M-292.1,312.9c0.2,0.2,0.4,0.4,0.5,0.6c0,0-0.2,0.2-0.3,0.3C-292.1,313.6-292.1,313.3-292.1,312.9z"/>
	<path class="st4" d="M-360.8,369.9c-0.3,0-0.7,0-1,0c-3.9-1.1-2.8-4.3-3-7c0-0.3,0-0.6,0-0.9c5.2-1,8.8-8.8,7-15
		c0.8-1.4,1.5-2.8,2.3-4.2c3.3-3.4,7.5-1.1,11.3-1.7c1-0.2,2.4-0.5,3.1,0.9c0.6,1.3-0.3,2.2-1,3.1c-1.5,1.9-3.1,3.8-2.5,6.6
		c0.8,3.9-0.6,7.5-2.6,10.7c-1.2,1.8-1.5,3.6-1.4,5.5c0,0-0.1,0.2-0.1,0.2c-0.3,0-0.7,0.1-1,0.1c-2.3,0.3-4.6,0.5-6.9,0.8
		c-1.3-1.3-1.7-0.3-2.1,0.8C-359.5,369.7-360.2,369.8-360.8,369.9z"/>
	<path class="st8" d="M-348.8,367.7c-0.1-2,0.2-3.7,1.4-5.5c2-3.1,3.4-6.8,2.6-10.7c-0.6-2.8,1-4.7,2.5-6.6c0.7-0.9,1.6-1.8,1-3.1
		c-0.7-1.3-2-1-3.1-0.9c-3.7,0.6-7.9-1.7-11.3,1.7c0-0.9-0.1-1.8-0.1-2.6c5.4-2,11.1-0.7,16.6-1c1.9-0.1,2.2,0.9,1.2,2.6
		c-0.6,1-0.7,2.1-1.1,3.2c-2.1,0.6-2.9,2.4-2.8,4.2c0.6,5.7-1.2,10.6-4.5,15.2c-0.5,0.7-0.2,1.9-0.3,2.9c-0.1,0.3-0.2,0.6-0.2,0.9
		C-347.5,367.8-348.1,367.8-348.8,367.7z"/>
	<path class="st3" d="M-357.9,346.9c1.9,6.2-1.7,14-7,15C-363.2,356.6-361.1,351.5-357.9,346.9z"/>
	<path class="st5" d="M-263.1,360c0,1.3-0.2,2.8,1.8,2.9c-1.6,2-3.3,4-4.9,6c-1.5,1.8-0.3,2.1,1.2,2.3c-0.1,1.4-0.8,2.3-2,2.8
		c-1.1-0.1-2.3-0.3-3.1,0.7c-1.2,0.3-1.8,1.1-1.9,2.3c-0.6-0.1-1.2-0.2-1.8-0.2c-0.1-2.3,0.3-5.3-3.4-2.2c-1,0.9-2.5,0.4-3.7,0.1
		c0.9-1.5,1.8-3,3.9-2.9c2,0.6,3.4-0.8,4.9-1.6C-267.7,368.1-266.5,363-263.1,360z"/>
	<path class="st7" d="M-265,371.1c-1.5-0.1-2.8-0.4-1.2-2.3c1.7-2,3.3-4,4.9-6c3.9-6.9,10.1-11.5,15.4-17.2c0.4,3.3-2.5,4.7-3.5,7.1
		c-2.4,2.9-5.1,5.6-6.6,9.1C-260.4,363.7-261.9,368.1-265,371.1z"/>
	<path class="st7" d="M-263.1,360c-3.5,3-4.6,8.1-9.2,10.1c0.1-0.8,0.1-1.6,0.1-2.4c0.4-0.6,0.8-1.1,1.2-1.7
		c0.3-0.4,0.6-0.7,0.9-1.1l0.1-0.1c3.7-6.2,9.6-10.9,12.6-17.7c0.8-0.8,1.5-1.5,2.3-2.3c0.6-0.6,1.3-1.2,2-0.7
		c0.9,0.7-0.2,1.7,0,2.6C-256.5,351.2-259.8,355.6-263.1,360z"/>
	<path class="st9" d="M-256.1,361.9c1.5-3.5,4.2-6.2,6.6-9.1c1.9,0.8,3.2-3.3,4.5-1.2c1.4,2.2-1.9,3.3-2.8,5.1
		c-0.5,1-3.7,1.3-1.1,3.4c-0.5,1.5-1.4,2.7-3,3.1C-253.2,362.7-255,363.4-256.1,361.9z"/>
	<path class="st7" d="M-230.2,361.9c-0.8,2.1-2,3.2-4.4,3c-3.1-0.2-2.6-2.9-3.7-4.5c1-1.2,2.1-2.3,3.1-3.5c1.3-1.4,2.7-2.7,4-4.1
		c1.3-0.4,2.1-1.3,2.1-2.7c1.3,0,2.7-0.7,3.7,0.8c-3.4,3.4-7.3,6.4-10.3,10.5C-233.7,362.7-231.9,361.8-230.2,361.9z"/>
	<path class="st7" d="M-245.9,360.9c-0.9,0-1.7,0-2.2-0.8c3.3-3.7,6.6-7.4,9.9-11c0.6-0.7,1.5-1.7,2.5-0.8c1,0.9-0.3,1.7-0.5,2.6
		c-0.3,0.3-0.6,0.7-0.9,1c-1.4,0.7-2.3,1.9-3,3.2c-0.2,0.2-0.5,0.4-0.7,0.7C-242.5,357.5-244.2,359.2-245.9,360.9z"/>
	<path class="st9" d="M-237.1,352c0.3-0.3,0.6-0.7,0.9-1c1.7,0.5,4.3-1.3,5,1.9c-1.3,1.4-2.7,2.7-4,4.1c-1.4-0.2-4.2,0.3-1.4-2.3
		C-235,353.2-236.9,352.8-237.1,352z"/>
	<path class="st9" d="M-241.8,351.3c-1.7-3.5-2.1-5.9-0.4-7.9c1.5-1.7,3.6,0.6,2.6,3c-0.3,0.7-1,1.3-1.3,2
		C-241.3,348.9-241.3,349.6-241.8,351.3z"/>
	<path class="st6" d="M-257.5,347.2c-3,6.8-8.9,11.4-12.6,17.7c-0.3-1.9-0.7-3.8-1-5.7c3.3-4.2,6.6-8.3,9.8-12.5
		C-260.5,350.8-258.6,346.6-257.5,347.2z"/>
	<path class="st6" d="M-273.2,353.6c0.7-1.4,1.5-2.9,2.2-4.3c1-1.8,2.2-3.4-1-4.5c-2.1-0.7-0.8-2.4-0.3-3.7c1.2-0.2,1.5-3,3.5-1
		c1,1,3.3,1,2.1,3.5c-0.6,1.3-0.6,3,1.6,3.3c-1.7,2.8-3.2,5.8-5.8,8.1C-271.9,354.9-272.8,354.6-273.2,353.6z"/>
	<path class="st7" d="M-271,355c2.5-2.2,4-5.2,5.8-8.1c0.5-0.6,1-1.3,1.5-1.9c0.7-1,1.2-2.8,2.8-1.8c1.7,1-0.4,2.2-0.3,3.4
		c-3.3,4.2-6.6,8.3-9.8,12.5C-273.1,357.7-271.7,356.4-271,355z"/>
	<path class="st5" d="M-230.2,361.9c-1.7-0.1-3.5,0.8-5.5-0.5c3-4.1,6.9-7.1,10.3-10.5c1.4,0.4,2.8,0.7,4.2,1.1
		c-1.5,3-5.7,4-6.1,7.9l0-0.1C-228.2,360.6-229.2,361.2-230.2,361.9z"/>
	<path class="st7" d="M-220.1,364c0-0.7,0-1.4-0.1-2.1c1.7-1.3,3.2-2.9,4.2-4.8c1.6-0.1,2.7-1.1,3.8-2.1c1.2-0.2,2.5-0.5,3.1,1.1
		c-2.9,3-8,4.2-8.3,9.6c0,6.8-4.6,6.7-9.4,6.3c-0.8-0.1-1.6,0.1-2.4,0.1c0.9-3.5,3.3-1,4.7-0.9C-218.8,371-217.9,369.7-220.1,364z"
		/>
	<path class="st6" d="M-216,357c-1,1.9-2.5,3.5-4.2,4.8c-2.5,0-6,3.3-7-2c0,0,0,0.1,0,0.1c3.6-0.2,4.6-4.3,7.7-5.2
		c0.4,0.1,0.9,0.1,1.3,0.2C-218.1,356.3-217.3,356.9-216,357z"/>
	<path class="st7" d="M-219.5,354.7c-3.1,0.9-4.1,5-7.7,5.2c0.4-3.9,4.6-4.9,6.1-7.9c0,0,0,0,0,0c0.6-0.1,1.2-0.3,1.8-0.4
		c0.4,0.5,0.7,0.9,1.1,1.4C-218.7,353.6-219.1,354.2-219.5,354.7z"/>
	<path class="st5" d="M-219.5,354.7c0.4-0.6,0.8-1.1,1.3-1.7c1.2,0.6,0.9,1.2,0,1.9C-218.6,354.8-219.1,354.8-219.5,354.7z"/>
	<path class="st5" d="M-219.3,351.6c-0.6,0.1-1.2,0.3-1.8,0.4C-220.7,351-220.1,350.8-219.3,351.6z"/>
	<path class="st9" d="M-269,331.1c0,0.3-0.1,0.6-0.4,0.8c-2.7-1-1.8-2.7-1.1-4.6C-268.3,328.2-269.4,329.9-269,331.1z"/>
	<path class="st8" d="M-200.5,452.7c0.3-0.4,0.7-0.7,1-1.1C-199.5,452.2-199.8,452.6-200.5,452.7z"/>
	<path class="st6" d="M-199.2,410.8c-1.3-0.7-2-2-1.9-3.2c0.2-3.5-1-6.5-2.2-9.6c1.7-0.5,2.5,0.6,3.2,1.8c0.3,0.3,0.7,0.7,1,1
		c0,0.6,0.1,1.3,0.1,1.9C-199.1,405.5-199.1,408.2-199.2,410.8z"/>
	<path class="st1" d="M-195.4,407.8c0-1.3,0.1-2.6,0.1-3.9c1-0.7,2-1.4,3-2c1.3,0.7,2.9,1.1,3,3c-1.5,0.6-3.8,0.1-3.8,2.8
		C-193.8,407.7-194.6,407.7-195.4,407.8z"/>
	<path class="st6" d="M-203.3,424.9c-3.4-1.7-2.2-3.3,0.1-4.9C-203.2,421.6-203.2,423.3-203.3,424.9z"/>
	<path class="st6" d="M-203.2,432.8c-1.1-0.1-1.9-0.5-1.9-1.7c-0.1-1.4,0.5-2.1,1.9-2.2C-203.2,430.2-203.2,431.5-203.2,432.8z"/>
	<path class="st0" d="M-200.1,399.9c-0.7-1.2-1.5-2.3-3.2-1.8c-1.9-0.9-4.5,2.1-6-1.1c-2.3-3.9-5.6-3.5-9.1-2
		c-0.3-0.1-0.5-0.2-0.7-0.3c-0.6-0.3-1.1-0.6-1.7-0.9c-4.6-2.3-8.8-5.7-14.3-6c0.4-5.1,4.7-3.3,6.3-2.5c4.5,2.3,9,1.5,13.5,1.7
		l0.2,0.1c3.3,4.4,8.1,4.1,12.9,3.9c0.4,0,0.7,0.1,1.1,0.1c-0.3,1.8,2.1,2.2,2,3.9c0,1.3-0.1,2.7-0.1,4
		C-199.5,399.2-199.8,399.5-200.1,399.9z"/>
	<path class="st5" d="M-170.5,378c1.4,1.5,1,3.2,0.4,4.9c-5.3,4-11.1,1.6-16.8,1.6c-1.4,0-2.9-0.5-4.3-0.8c0.7-2.2-1.8-5.4,1.9-6.7
		c0,0,0,0,0,0c0,1.4,0.7,2,2,1.9c0.2,0.2,0.5,0.3,0.8,0.3c0.6,1.3,1.8,1.7,3.1,1.8c1,3.4,3.8,1.8,5.8,1.9c2.1,0.1,5.7,1.1,5.6-2
		c0-3.3-3.6-1.2-5.5-1.9c0.7-0.3,1.3-0.6,2-0.9c0.7-0.3,1.4-0.6,2.1-0.9C-172.3,377.4-171.4,377.7-170.5,378z"/>
	<path class="st3" d="M-175.3,378c-0.7,0.3-1.3,0.6-2,0.9c-1,0.4-1.9,1-3.1,0.6c-1.9-2.5-3.9-1.6-6-0.4c-0.3,0-0.6-0.1-0.8-0.3
		c0-1.3-0.8-1.9-2-1.9c0,0,0,0,0,0c-1.7-6-1.7-6,4.5-6c1.1,0,2.3,0,3.4,0c-0.1,2.4,0.2,4.3,3.3,3.9
		C-175.8,374.7-175.2,376-175.3,378z"/>
	<path class="st8" d="M-199.2,394.8c0.1-1.7-2.3-2.1-2-3.9c3.5-3.6,4.1-19.5,0.9-24.1l0.3-0.2c1.9,0.1,3.6,1.2,3.3,2.9
		c-1.5,8.1,0.8,16.5-1.9,24.5C-198.7,394.4-199,394.6-199.2,394.8z"/>
	<path class="st4" d="M-175.3,378c0.1-1.9-0.5-3.2-2.7-3c-3.1,0.3-3.5-1.6-3.3-3.9c3.9,0.3,8.8-0.5,8.1,6
		C-173.9,377.3-174.6,377.6-175.3,378z"/>
	<path class="st8" d="M-201.1,363.9c0.4,0.3,0.7,0.7,1.1,1c0,0.6,0.1,1.2,0.1,1.8c0,0-0.3,0.2-0.3,0.2
		C-201.2,366.1-201.3,365-201.1,363.9z"/>
	<path class="st8" d="M-200.1,399.9c0.3-0.4,0.6-0.7,0.8-1.1c0.8,0.5,1,1.2,1,2.1c0,0-0.4,0.1-0.4,0.1s-0.4,0-0.4,0
		C-199.5,400.6-199.8,400.2-200.1,399.9z"/>
	<path class="st9" d="M-201.1,363.9c-0.1,1.1,0,2.2,0.9,3c3.2,4.5,2.6,20.4-0.9,24.1c-0.4,0-0.7-0.1-1.1-0.1
		c-4-2.3-8.1-4.2-12.9-3.9c0,0-0.2-0.1-0.2-0.1c-0.3-0.5-0.7-1.5-1-1.5c-5.1,0.2-9.7-2.5-14.7-2.7c-0.1-0.6-0.2-1.8-0.4-1.8
		c-6.6-0.7-1.4-2.7-0.5-4.3c0.3-0.5,0.6-1.1,0.8-1.7c2.2-1.2,4.4-2.3,7.2-2.2c7,0.3,7,0.1,6.5-7.3c0.3-5.3,5.3-6.5,8.3-9.6
		c2.7,0.8,2.7,4.8,6,4.9C-202.5,361.9-201.8,362.9-201.1,363.9z"/>
	<path class="st0" d="M-189.2,404.9c-0.1-1.9-1.7-2.3-3-3c-1-2.6-2.7-5.3,1.1-7c0.9,0,1.9,0,2.8,0c3.3,1.3,6.5,2.7,9.8,4
		c3.2-0.2,5.6,3.1,9,2.1c0,0.3,0,0.6,0,1c-0.3,0.3-0.5,0.7-0.8,1c0,0,0,0.1,0,0.1c-1.5-0.1-3-0.1-3,2.1l-0.4,0c0,0-0.4,0-0.4,0
		c-0.4,0.2-0.8,0.5-1.2,0.7c-1.3,0-2.5-0.1-3.8-0.1c-0.4-1.3-0.9-2.2-2.1-0.6C-183.9,404.9-186.6,404.9-189.2,404.9z"/>
	<path class="st1" d="M-173.3,405c0-2.1,1.5-2.1,3-2.1C-170.8,404.3-171.8,405-173.3,405z"/>
	<path class="st1" d="M-181.3,405c1.2-1.6,1.7-0.6,2.1,0.6C-180,405.9-180.8,405.8-181.3,405z"/>
	<path class="st4" d="M-170.3,402.9c0.3-0.3,0.5-0.7,0.8-1C-169.7,402.2-170,402.5-170.3,402.9z"/>
	<path class="st1" d="M-175.4,405.7c0.4-0.2,0.8-0.5,1.2-0.7C-174.6,405.2-175,405.5-175.4,405.7z"/>
	<path class="st5" d="M-185.2,388.9c1.5,0.3,3.4-0.3,4,1.9c-3,0-6.1,0-9.1,0C-189,389.1-186.5,390.7-185.2,388.9z"/>
	<path class="st1" d="M-185.2,388.9c-1.3,1.8-3.8,0.2-5.1,1.9c-0.3,0-0.7,0-1,0c-1-1.2-0.4-1.8,0.8-1.9
		C-188.7,388.9-187,388.9-185.2,388.9z"/>
	<path class="st5" d="M-188.3,394.8c-0.9,0-1.9,0-2.8,0c0-1,0-1.9,0-2.9C-190.2,392.9-189.2,393.9-188.3,394.8z"/>
	<path class="st3" d="M-274,463.8c0.3,0.3,0.7,0.6,1,1C-273.4,464.5-273.7,464.1-274,463.8z"/>
	<path class="st8" d="M-221.2,405c-8.2,0-16.4-0.1-24.6-0.1c-3.9,0-6.6-1.6-7.3-5.8c0.7,0,1.3-0.1,2-0.1c2.3,0,4.6,0,7,0
		c1.9,2.2,3.8-1.1,5.7,0c6.8,1.8,13.6,1.8,20.2-1.1C-217.5,400.9-218.6,403.2-221.2,405z"/>
	<path class="st7" d="M-251,399c-0.7,0-1.3,0.1-2,0.1c-1.5-5.1-1.5-5.1-5.6-1.6c-0.9,0.7-1.7,1.4-2.5,2.2c-6.2,3.7-11,9-16.7,13.3
		c-0.4-0.4-0.7-0.8-1.1-1.1c-0.2-3.6,4.2-3.4,5-6.1c1.1,0.1,1.8-0.5,1.9-1.6c3.4-0.2,5-3,7.1-5c3.9-3.4,8.3-6.3,11.7-10.2
		c2,0.2,2.1,1.6,2.1,3.2C-251.1,394.4-251.1,396.7-251,399z"/>
	<path class="st6" d="M-221.2,405c2.6-1.8,3.7-4.1,2.9-7.2c0-0.3,0-0.6,0-0.9c1.4-0.8-0.2-1.3-0.2-2c3.5-1.5,6.8-1.9,9.1,2
		c-4.1-0.6-6.8,0.3-5.9,5.4c0.4,2.3-2.1,3-3.2,4.3C-219.2,407.5-221,406.8-221.2,405z"/>
	<path class="st3" d="M-333.9,402.9c1.1,0.8,1,1.9,0.8,3C-334.1,405.1-333.9,404-333.9,402.9z"/>
	<path class="st8" d="M-303.9,367.9c7.7-2.3,15.6-0.2,23.4-1c2.8-0.3,4.8-1,5.6-3.8c0,0-0.1-0.1-0.1-0.1c0.6,0,1.2,0,1.8,0
		c0.4,1.6-0.6,3.4,1,4.7c0,0.8-0.1,1.6-0.1,2.4c-1.6,0.8-2.9,2.2-4.9,1.6c-0.7-1-1.9-0.6-2.9-0.9c-1.7-1.2-3.4-1.3-5,0.2
		c-0.7,0-1.4,0-2.1-0.1c-0.3-0.1-0.6-0.1-0.8-0.1c-4.3-1.3-8.7-1.4-12.9,0.3c-1.1-0.4-2.1-0.8-3.2-1.2
		C-304,369.2-304,368.6-303.9,367.9z"/>
	<path class="st1" d="M-304.1,369.8c1.1,0.4,2.1,0.8,3.2,1.2c0,3.6,0,7.2,0,10.8c0,1.1,0.1,2.2,0.1,3.3c1.1,1,0.2,3.4,2.6,3.5
		c0,0.4,0.1,0.8,0.1,1.2c-2.1,1.1-1.9,3.2-1.9,5.1c-1.7,1-3.8,1.1-3.7-1.2C-303.5,385.7-306.5,377.8-304.1,369.8z"/>
	<path class="st5" d="M-306,362.9c-2.1,1.2-2.3,3-1.9,5.1c-1.5,1.7-0.9,4-1.3,6c-3.4-1-0.2-4.9-2.8-6.2c1.2-2.4,0.8-5.7,4-6.9
		c0.7,0,1.5,0.1,2.2,0.1C-306,361.6-306,362.2-306,362.9z"/>
	<path class="st8" d="M-310.9,388.8c-2.7-0.7-3.7-1.8-2.1-4.7c1.4-2.5,2.2-5.4,3.2-8.1C-306.6,380.5-309.1,384.6-310.9,388.8z"/>
	<path class="st4" d="M-353.8,387.8c0-0.3,0-0.6,0-0.9c-0.5-4.8-0.5-8.9,6.3-8.4c1.3,0.1,3.3-0.1,4.6-1.5c0.3,0,0.6,0,0.8-0.1
		c1.8,2.6,1.5,6.5,5.1,8C-342.2,388.1-348.1,387.1-353.8,387.8z"/>
	<path class="st8" d="M-342.1,376.9c5.3-1.1,4.7,3,5.3,6c-0.1,0.6-0.2,1.3-0.2,1.9C-340.5,383.5-340.3,379.5-342.1,376.9z"/>
	<path class="st7" d="M-346.8,367.9c0.1-0.3,0.1-0.6,0.2-0.9c3.4-0.1,6.9-0.2,10.3-0.2c2.1,0,4.4-0.1,5.4,2.4
		c-1.3,3-3.9,1.1-5.9,1.7c-3-3.1-4.7-2.9-6.3,0.9c-0.5,0-1.1,0.1-1.6,0.1c-0.7-0.3-1.4-0.7-2-1
		C-346.7,369.9-346.8,368.9-346.8,367.9z"/>
	<path class="st3" d="M-342.9,376c0,0.4,0,0.7,0,1.1c-1.2,1.4-3.3,1.6-4.6,1.5c-6.8-0.5-6.8,3.7-6.3,8.4c-3.4-1.8-2.5-5.2-3-8
		C-352.7,375.4-347.5,377-342.9,376z"/>
	<path class="st3" d="M-358.9,369.6c0.4-1.1,0.8-2.1,2.1-0.8C-357.3,369.7-358,369.8-358.9,369.6z"/>
	<path class="st3" d="M-349.9,368c0.3,0,0.7-0.1,1-0.1C-349.2,368.6-349.5,368.6-349.9,368z"/>
	<path class="st9" d="M-296.3,346.7c1.5,0.5,1,2.5,2.2,3.2c-0.5,2.8-2,5.1-3.5,7.4c-1.8-1.1-1.2-3-1.5-4.6
		C-298.3,350.7-298.3,348.3-296.3,346.7z"/>
	<path class="st5" d="M-299,352.8c0.2,1.6-0.4,3.5,1.5,4.6c-0.4,1.8-1,3.4-2.4,4.7c-1.3,0.5-2.9,1.7-3.1-1
		C-301.8,358.3-300.4,355.5-299,352.8z"/>
	<path class="st5" d="M-272.1,367.7c-1.6-1.3-0.6-3.2-1-4.7c0.2-2-0.3-2.6-2-1.2c-1.6,0.1-3.8,0.5-2.2-2.3c1.2-2.1,2.7-3.9,4.1-5.9
		c0.4,1,1.3,1.3,2.3,1.3c-0.8,1.4-2.2,2.7-0.1,4.2c0.3,1.9,0.7,3.8,1,5.7c0,0-0.1,0.1-0.1,0.1c-0.3,0.4-0.6,0.7-0.9,1.1
		C-271.4,366.6-271.8,367.2-272.1,367.7z"/>
	<path class="st5" d="M-280.5,356.4c0.6-3,2.7-5.3,4.1-7.9c0.4-0.7,0.9-1.6,1.9-0.9c0.7,0.5,0.8,1.7,0.3,2.3
		c-2.1,2.3-2.4,5.9-5.6,7.3C-280,356.9-280.3,356.7-280.5,356.4z"/>
	<path class="st5" d="M-279.8,357.1c-0.2,1-0.3,1.9-1.4,2.3c-0.2,0.1-0.6-0.2-0.7-0.4c-0.4-1.3,0.2-2.1,1.4-2.6
		C-280.3,356.7-280,356.9-279.8,357.1z"/>
	<path class="st5" d="M-319.6,379.1c-0.5,3.8-2.1,7.1-4.4,10.2c0.3-4,1.3-7.8,3-11.5C-320.6,378.2-320.1,378.7-319.6,379.1z"/>
	<path class="st8" d="M-220.1,364c2.2,5.7,1.3,7-4.4,7c-1.5,0-3.9-2.6-4.7,0.9c-0.2,0.1-0.4,0.1-0.6,0c-1.4,0-2.8,0-4.2,0.1
		c-0.5-0.1-0.9-0.1-1.4-0.2c-1.7-4.1-4.6,0.1-6.7-1c-0.8-0.9-1.4-0.9-2,0.2c-0.3,0.6-0.7,1.3-1,1.9c-4.1,0.2-2.8-2.9-3-5
		c7.4-2.1,15-0.7,22.5-0.9C-223,366.9-221.3,366.1-220.1,364z"/>
	<path class="st1" d="M-245.1,394.8c-2.4-0.2-3-2.1-2.9-3.9c0.2-7.4-1.3-14.7-2.1-22c0.7-0.3,1.3-0.7,2-1c0.2,2.1-1.1,5.2,3,5
		c0.2,1.4-0.6,3,1,4.1c0,1.3,0,2.7,0,4c0,1.3,0,2.6,0,3.9C-246.3,388-244.6,391.5-245.1,394.8z"/>
	<path class="st6" d="M-256.1,361.9c1.1,1.5,2.8,0.8,4.2,1.3c-0.4,0.6-0.8,1.2-1.2,1.8c-1,0.4-2,0.8-2.9,1.2
		c-0.5-0.9-1.3-1.4-2.3-0.9c-0.2,0.1-0.4,0.6-0.4,0.7c0.4,1.2,1.5,0.8,2.4,0.8c0.1,4-4.8,5.2-5.1,9.1c-2.3,0.4-5.5,3.5-5.7-2
		c1.2-0.5,1.9-1.4,2-2.8C-261.9,368.1-260.4,363.7-256.1,361.9z"/>
	<path class="st6" d="M-237.1,352c0.2,0.9,2.1,1.2,0.5,2.7c-2.8,2.6,0,2.1,1.4,2.3c-1,1.2-2.1,2.3-3.1,3.5c-0.3,0.4-0.6,0.8-1,1.3
		c-1.8,1-3.8,1.1-5.8,1.1c-0.7-0.5-1-1.1-0.8-1.9c1.7-1.7,3.3-3.4,5-5c0.2-0.2,0.5-0.4,0.7-0.7C-239.4,353.9-238.5,352.7-237.1,352z
		"/>
	<path class="st7" d="M-261.3,375.9c0.2-3.8,5.2-5,5.1-9.1c0.2-0.2,0.3-0.4,0.3-0.7c1-0.4,2-0.8,2.9-1.2c0,1,0,2,0,3
		c-0.7,1.2-1.2,2.5-1.1,3.9c-2.5,0.7-4,2.7-5.8,4.2C-260.4,376-260.8,376-261.3,375.9z"/>
	<path class="st7" d="M-245,362.8c2,0,4-0.1,5.8-1.1c0.1,1.5,0.2,3-1.9,3.1C-242.7,364.8-244.9,365.6-245,362.8z"/>
	<path class="st8" d="M-281.1,374.6c1.3,0.3,2.7,0.7,3.7-0.1c3.7-3.1,3.3-0.1,3.4,2.2c-1.2,0.8-1.1,2-1.2,3.1c-1.8-0.5-3,2.4-5,1
		c-0.9-2-2.6-2.2-4.5-1.8c-0.5-1-1.4-1-2.3-0.9c-1-1.9-2-0.5-3,0c-1-0.7-2-1.4-3-2.1c0.6-0.7,1.2-1.4,1.8-2c0.1-0.3,0.1-0.6,0.1-1
		c1-0.4,1.9-0.7,2.9-1.1c0.2,0.9-1.7,2.1,0.2,2.7c1,0.3,1.5-0.8,1.8-1.8c0.4-0.4,0.7-0.8,1.1-1.2c0.7,0,1.4,0,2.1,0.1
		C-282.6,372.8-283.8,375-281.1,374.6z"/>
	<path class="st8" d="M-261.3,375.9c0.5,0,0.9,0.1,1.4,0.1c0.7,2.6,2.1,2.9,4,1.1c1.2,2.1,2.6,4.1,1.6,6.7c-0.3,0-0.6,0.1-0.9,0.1
		c-1-1.5-2.3-0.9-3.6-0.7c-1-1.8-2.1-0.8-3.2-0.2c-1.1-0.4-2.1-0.9-3.2-1.3c-2.1-2.9-3.9,1.3-5.9,0.3l-0.1-0.2
		c-0.6-0.7-1.3-1.4-1.9-2.1c0.8-1.7,4.4,0.1,3.9-3.2c0.1-0.9-0.2-1.6-1-2c0.9-1,2-0.8,3.1-0.7C-266.8,379.4-263.6,376.4-261.3,375.9
		z"/>
	<path class="st7" d="M-281.1,374.6c-2.7,0.4-1.5-1.8-1.9-2.9c1-0.3,1.9-0.7,2.9-1c1,0.3,2.1-0.1,2.9,0.9
		C-279.3,371.6-280.2,373.1-281.1,374.6z"/>
	<path class="st0" d="M-269.2,376.7c0.5,3.3-3.2,1.4-3.9,3.2c-0.7,0-1.3,0-2,0c0-1.2,0-2.4,1.2-3.1c0.6,0.1,1.2,0.2,1.8,0.2
		C-271.1,376.8-270.2,376.7-269.2,376.7z"/>
	<path class="st6" d="M-271,366c0.3-0.4,0.6-0.7,0.9-1.1C-270.4,365.3-270.7,365.7-271,366z"/>
	<path class="st9" d="M-240.1,355.2c-0.2,0.2-0.5,0.4-0.7,0.7C-240.6,355.6-240.4,355.4-240.1,355.2z"/>
	<path class="st5" d="M-229.8,371.9c0.2,0.1,0.4,0.1,0.6,0c0.8,0,1.6-0.2,2.4-0.1c4.8,0.5,9.4,0.5,9.4-6.3c0.5,7.3,0.5,7.5-6.5,7.3
		c-2.8-0.1-4.9,1-7.2,2.2c-0.1-0.1-0.3-0.3-0.4-0.4C-230.9,373.7-230.4,372.8-229.8,371.9z"/>
	<path class="st6" d="M-235.1,387.7c5.5,0.3,9.7,3.6,14.3,6c-4.5,2.4-9.5,0.3-14.2,1.4c-0.7,0-1.5,0-2.2,0c-1.3,0-2.6,0-3.9,0
		c-0.7-0.1-1.3-0.1-2-0.2c-2.1-8.7-1.7-9.1,7-7.2C-235.8,387.8-235.4,387.7-235.1,387.7z"/>
	<path class="st8" d="M-235.1,387.7c-0.3,0-0.7,0-1,0c-8.7-1.9-9.1-1.5-7,7.2c-0.6,0.3-1.3,0.7-1.9,1c0-0.4,0-0.7-0.1-1.1
		c0.5-3.3-1.2-6.9,1.1-10c2.8,0.2,5.8,0.5,4.8-4c0.2-0.1,0.4-0.2,0.6-0.2c2.4,1.1,4.7,2.7,7.6,2.1c5,0.2,9.6,2.9,14.7,2.7
		c0.3,0,0.7,1,1,1.5c-4.5-0.2-9.1,0.7-13.5-1.7C-230.4,384.4-234.8,382.6-235.1,387.7z"/>
	<path class="st7" d="M-245.1,395.9c0.6-0.3,1.3-0.7,1.9-1c0.7,0.1,1.3,0.1,2,0.2c1.3,1.1,2.6,1,3.9,0c0.7,0,1.5,0,2.2,0
		c5.3,1,10.7,1.6,15.9-0.5c0.2,0.1,0.5,0.2,0.7,0.3c-0.1,0.7,1.6,1.2,0.2,2c-6.8,0.2-13.7-1.1-20.2,2c-1.9-1.1-3.8,2.2-5.7,0
		C-244.4,397.9-244.7,396.9-245.1,395.9z"/>
	<path class="st8" d="M-215.2,387c4.8-0.3,8.9,1.6,12.9,3.9C-207,391-211.8,391.4-215.2,387z"/>
	<path class="st8" d="M-219.1,394.6c-5.2,2.1-10.6,1.5-15.9,0.5c4.7-1.1,9.7,1.1,14.2-1.4C-220.3,394-219.7,394.3-219.1,394.6z"/>
	<path class="st6" d="M-180.4,379.5c1.1,0.4,2.1-0.2,3.1-0.6c1.9,0.7,5.5-1.4,5.5,1.9c0,3.2-3.6,2.1-5.6,2c-2-0.1-4.8,1.6-5.8-1.9
		C-182.2,380.6-180.8,381.1-180.4,379.5z"/>
	<path class="st1" d="M-180.4,379.5c-0.4,1.7-1.8,1.2-2.9,1.5c-1.3-0.1-2.5-0.5-3.1-1.8C-184.3,377.8-182.3,377-180.4,379.5z"/>
	<path class="st1" d="M-189.3,376.9c1.3,0,2,0.6,2,1.9C-188.6,378.9-189.3,378.3-189.3,376.9z"/>
	<path class="st5" d="M-231,382.8c-2.9,0.7-5.2-1-7.6-2.1c2.4-2,4.8-4.1,7.2-6.1c0.1,0.1,0.3,0.3,0.4,0.4c-0.3,0.6-0.5,1.1-0.8,1.7
		c-0.9,1.5-6.1,3.6,0.5,4.3C-231.2,381-231.2,382.1-231,382.8z"/>
	<path class="st5" d="M-253.3,387.3c0,0.5,0,1.1,0,1.6c-3.4,4-7.8,6.8-11.7,10.2c-0.4-0.5-0.9-0.9-1.3-1.4c1.6-2.6,5.1-3.6,6.2-6.8
		c0,0,0,0,0,0c2.3-0.3,3.7-1.6,4-4l0,0C-255.2,387-254.2,387.2-253.3,387.3z"/>
	<path class="st8" d="M-266.3,397.7c0.4,0.5,0.9,0.9,1.3,1.4c-2.1,2-3.7,4.9-7.1,5c0-0.7,0-1.4,0-2.1
		C-269.5,401.4-268.3,399-266.3,397.7z"/>
	<path class="st7" d="M-266.3,397.7c-2,1.3-3.3,3.7-5.8,4.3c0.3-1.2,0.7-2.4,0.9-3.7c0.4-3-0.7-3.5-3-1.6c-0.3-0.6-0.6-1.2-0.9-1.8
		c2.8-2.2,6-3.8,7.8-7.1c1.7-1.6,3.4-3.2,5.2-4.8c1.1-0.6,2.3-1.6,3.2,0.2c-3,3.4-7,5.9-9.4,10.3c3.8,0.6,5-3.6,8.1-2.6
		C-261.1,394.1-264.6,395.1-266.3,397.7z"/>
	<path class="st7" d="M-275.1,379.8c0.7,0,1.3,0,2,0c0.6,0.7,1.3,1.4,1.9,2.1c-2.1-0.6-3.3,0.8-4.5,2.2c-2.4,2.8-4.9,5.6-7.3,8.4
		c-0.5-0.2-1-0.3-1.5-0.5c0,0-0.4-0.1-0.4-0.1c1.1-1.6,2.1-3.1,3.2-4.7c0.6-0.4,1.1-1.2,0.5-1.5c-1.3-0.8-1.3,0.8-1.8,1.4
		c-1.6,0.8-2,2.6-3,3.9c-0.9,0.8-1.8,1.6-2.7,2.3c-0.5-0.1-1-0.3-1.5-0.4c0.1-0.3,0.1-0.6,0.2-0.9c3.9-2.6,4-9.1,9.9-9.7
		c0.1,0,0.1-0.9,0.1-1.4C-278.1,382.2-276.9,379.4-275.1,379.8z"/>
	<path class="st7" d="M-292.9,375.9c1,0.7,2,1.4,3,2.1c-0.7,1.9-1.4,3.9-2.1,5.8l0,0c-1.7,0.7-2,2.5-3,3.8c0.1,2.4-0.6,3.6-3.2,2.1
		c0-0.4-0.1-0.8-0.1-1.2c1-2,2.8-3.8,2.9-6.5c-2.6,0.2-2.8,3.7-5.5,3c0-1.1-0.1-2.2-0.1-3.3c0.3-0.3,0.6-0.6,0.9-0.9
		c2.8-0.7,2.9-4.6,6-5C-293.7,375.9-293.3,375.9-292.9,375.9z"/>
	<path class="st6" d="M-283,392.4c2.4-2.8,4.9-5.6,7.3-8.4c1.2-1.4,2.3-2.8,4.5-2.2c0,0,0.1,0.2,0.1,0.2
		c-1.9,6.2-5.3,10.9-11.8,12.9C-282.9,394.1-283,393.2-283,392.4z"/>
	<path class="st7" d="M-282.9,394.9c6.5-1.9,9.9-6.7,11.8-12.9c2,1,3.8-3.1,5.9-0.3c-1.3,1.4-2.6,2.8-3.9,4.1
		c-2.8,2.6-5.3,5.4-6.9,8.9c-1.3,0-2.4,0.4-3.5,1.3C-280.9,397.2-282.6,397.6-282.9,394.9z"/>
	<path class="st7" d="M-286.9,378.1c0.9-0.2,1.8-0.1,2.3,0.9c-2.4,3.6-4.9,7.2-7.3,10.9c-0.3,0.1-0.6,0.2-1,0.2
		c-0.1-0.5-0.1-1-0.2-1.5c-0.5-1.8,1.7-2.9,1.1-4.7c0,0,0,0,0,0C-289,383.2-288.4,380.3-286.9,378.1z"/>
	<path class="st5" d="M-276,394.9c1.6-3.6,4.1-6.3,6.9-8.9c0.6,0.6,1.3,1.3,1.9,1.9c-1.8,3.3-5,5-7.8,7.1
		C-275.3,394.9-275.7,394.9-276,394.9z"/>
	<path class="st8" d="M-288.7,393.2c0.9-0.8,1.8-1.6,2.7-2.3c0.4,0.3,0.7,0.6,1.1,0.9c0,0,0.4,0.1,0.4,0.1
		C-286.1,391.9-286.1,396.8-288.7,393.2z"/>
	<path class="st5" d="M-292,383.9c0.6,1.8-1.6,2.9-1.1,4.7c-0.6-0.3-1.2-0.6-1.9-0.9C-294,386.4-293.7,384.6-292,383.9z"/>
	<path class="st8" d="M-292.8,390.1c0.3-0.1,0.6-0.1,1-0.2c0.6,0.7,1.2,1.4,1.8,2.1c-0.1,0.3-0.1,0.6-0.2,0.9
		C-292.4,393.2-293.1,392.1-292.8,390.1z"/>
	<path class="st5" d="M-300.7,385.1c2.6,0.7,2.9-2.8,5.5-3c-0.1,2.7-1.8,4.5-2.9,6.5C-300.5,388.6-299.6,386.1-300.7,385.1z"/>
	<path class="st5" d="M-244.1,381c0-1.3,0-2.7,0-4c2.7-2,4.7-5.3,8.7-5.3c0.5,0.1,0.9,0.1,1.4,0.2c-1.1,4.4-6,5.2-8.1,8.7
		C-242.8,380.8-243.4,380.9-244.1,381z"/>
	<path class="st7" d="M-242.2,380.7c2.1-3.5,7-4.4,8.1-8.7c1.4,0,2.8,0,4.2-0.1c-0.5,0.9-1.1,1.8-1.6,2.7c-2.4,2-4.8,4.1-7.2,6.1
		c-0.2,0-0.4,0.1-0.6,0.2C-240.2,380.8-241.2,380.7-242.2,380.7z"/>
	<path class="st7" d="M-235.4,371.8c-4-0.1-5.9,3.3-8.7,5.3c-1.6-1.1-0.8-2.7-1-4.1c0.3-0.6,0.7-1.3,1-1.9c0.7-0.1,1.3-0.1,2-0.2
		C-240,371.9-237.1,367.6-235.4,371.8z"/>
	<path class="st1" d="M-242.1,370.8c-0.7,0.1-1.3,0.1-2,0.2C-243.5,369.9-242.8,369.9-242.1,370.8z"/>
	<path class="st5" d="M-254.2,375.8c-0.6,0.4-1.2,0.9-1.7,1.3c-1.9,1.7-3.3,1.5-4-1.1c1.9-1.5,3.4-3.5,5.8-4.2
		C-254.1,373.2-254.2,374.5-254.2,375.8z"/>
	<path class="st7" d="M-254.3,383.9c0.9,0.4,1.1,1.2,1.2,2.1c-0.1,0.4-0.1,0.9-0.2,1.3c-0.9-0.1-1.9-0.3-2.8-0.4
		c-1-1.4,0.6-1.9,0.9-2.9C-254.9,384-254.6,383.9-254.3,383.9z"/>
	<path class="st0" d="M-242.2,380.7c1,0.1,2,0.1,2.9,0.2c1,4.4-2,4.1-4.8,4c0-1.3,0-2.6,0-3.9C-243.4,380.9-242.8,380.8-242.2,380.7
		z"/>
	<path class="st9" d="M-256,366.1c0,0.3-0.1,0.5-0.3,0.7c-0.9-0.1-1.9,0.4-2.4-0.8c-0.1-0.2,0.2-0.6,0.4-0.7
		C-257.2,364.8-256.5,365.2-256,366.1z"/>
	<path class="st5" d="M-290.1,391.9c-0.6-0.7-1.2-1.4-1.8-2.1c2.4-3.6,4.9-7.2,7.3-10.9c1.9-0.4,3.6-0.2,4.5,1.8
		c0,0.5,0,1.4-0.1,1.4C-286.1,382.8-286.2,389.3-290.1,391.9z"/>
	<path class="st5" d="M-286.9,378.1c-1.4,2.2-2,5.1-5.1,5.8c0.7-1.9,1.4-3.9,2.1-5.8C-288.9,377.6-287.9,376.2-286.9,378.1z"/>
	<path class="st7" d="M-291.1,373.9c-1,0-2,0-3,0c0.1-0.3,0.2-0.7,0.3-1c0.9,0,1.8,0,2.8,0C-291,373.2-291,373.6-291.1,373.9z"/>
	<path class="st5" d="M-255.2,384c-0.2,1-1.9,1.6-0.9,2.9c0,0,0,0,0,0c-2.6,0.1-4.1,1.2-4,4c0,0,0,0,0,0c-3.2-1-4.3,3.3-8.1,2.6
		c2.4-4.4,6.4-6.9,9.4-10.3C-257.5,383-256.2,382.4-255.2,384z"/>
	<path class="st6" d="M-267.2,387.8c-0.6-0.6-1.3-1.3-1.9-1.9c1.3-1.4,2.6-2.8,3.9-4.1c1.1,0.4,2.1,0.9,3.2,1.3
		C-263.8,384.7-265.5,386.3-267.2,387.8z"/>
	<path class="st8" d="M-237.2,395.1c-1.3,1-2.6,1.1-3.9,0C-239.8,395.1-238.5,395.1-237.2,395.1z"/>
	<path class="st7" d="M-260.1,390.9c-0.1-2.8,1.4-3.9,4-4C-256.4,389.3-257.8,390.5-260.1,390.9z"/>
	<path class="st5" d="M-284.9,391.8c-0.4-0.3-0.7-0.6-1.1-0.9c1-1.3,1.4-3.1,3-3.9c0.4,0.1,0.8,0.1,1.3,0.2
		C-282.8,388.6-283.9,390.2-284.9,391.8z"/>
	<path class="st6" d="M-281.7,387.1c-0.4-0.1-0.8-0.1-1.3-0.2c0.6-0.5,0.5-2.2,1.8-1.4C-280.7,385.9-281.2,386.7-281.7,387.1z"/>
	<path class="st8" d="M-293.8,372.9c-0.1,0.3-0.2,0.7-0.3,1c0,0,0,0,0,0c-0.7,0.3-0.7,0.7,0,1.1c0,0.3,0,0.7-0.1,1
		c-3.1,0.3-3.1,4.3-6,5c-0.2-2.6,1-4.8,2.1-7C-297,372.1-295.7,370.8-293.8,372.9z"/>
	<path class="st7" d="M-294,374.9c-0.7-0.4-0.6-0.7,0-1.1C-294,374.2-294,374.6-294,374.9z"/>
</g>
<rect x="587" y="324.2" class="st10" width="410.6" height="212.9"/>
<text transform="matrix(1 0 0 1 586.9892 361.3469)"><tspan x="0" y="0" class="st11 st12 st13">Africa Centre </tspan><tspan x="0" y="60" class="st11 st12 st13">for Capacity </tspan><tspan x="0" y="120" class="st11 st12 st13">Building ltd</tspan></text>
</svg>
